<?xml version="1.0" encoding="utf-8"?>
<!-- Generator: Adobe Illustrator 28.3.0, SVG Export Plug-In . SVG Version: 6.00 Build 0)  -->
<svg version="1.1" id="Layer_1" xmlns="http://www.w3.org/2000/svg" xmlns:xlink="http://www.w3.org/1999/xlink" x="0px" y="0px"
	 viewBox="0 0 558 764" style="enable-background:new 0 0 558 764;" xml:space="preserve">
<style type="text/css">
	.st0{fill:url(#SVGID_1_);}
	.st1{fill:url(#SVGID_00000016771600995961275840000008222863550104020637_);}
	.st2{fill:#1B2C37;}
	.st3{fill:#90794F;}
	.st4{fill:#1E6079;}
	.st5{fill:#EAC85C;}
	.st6{fill:#B97E87;}
	.st7{fill:#162230;}
	.st8{fill:#44301E;}
	.st9{fill:#2C3342;}
	.st10{fill:#2C3F48;}
	.st11{fill:#1E1B24;}
	.st12{fill:url(#SVGID_00000100381953648366433460000017813779201856011160_);}
	.st13{fill:url(#SVGID_00000035528887261475203230000007131057299592110217_);}
	.st14{fill:url(#SVGID_00000077297460306792592900000008898670312061148860_);}
	.st15{fill:#379AB3;}
	.st16{fill:url(#SVGID_00000091006766720346406190000003648748521044271769_);}
	.st17{fill:url(#SVGID_00000106110762086676676010000000741614079750049930_);}
	.st18{fill:url(#SVGID_00000065791854364565401060000005755074717111400631_);}
	.st19{fill:url(#SVGID_00000176038546036707836980000010253027759314719625_);}
	.st20{fill:url(#SVGID_00000175316518073622860020000003902302080350902453_);}
	.st21{fill:url(#SVGID_00000003095496205510439240000012471484562483075464_);}
	.st22{fill:#67B4C4;}
	.st23{fill:url(#SVGID_00000174563789510940958220000003345571325564277907_);}
	.st24{fill:#308AA5;}
	.st25{fill:#18181B;}
	.st26{fill:#835365;}
	.st27{fill:#4F3A4A;}
	.st28{fill:#284A54;}
	.st29{fill:url(#SVGID_00000075866167673175930390000008329791137393805696_);}
	.st30{fill:#17314A;}
	.st31{fill:#3F4452;}
	.st32{fill:#987481;}
	.st33{fill:url(#SVGID_00000104694372845195752690000012117042476792907958_);}
	.st34{fill:#E2AD60;}
	.st35{fill:#2D2D24;}
	.st36{fill:#6B4F56;}
	.st37{fill:url(#SVGID_00000170967679874540115390000006246114011917320601_);}
	.st38{fill:#2A2A2E;}
	.st39{fill:#B4844D;}
	.st40{fill:#7F5D44;}
	.st41{fill:#986E47;}
	.st42{fill:#674C3F;}
	.st43{fill:#523F3B;}
	.st44{fill:#372D33;}
</style>
<g>
	<g id="Background_00000110442216193554511600000012829898118439101089_">
		
			<linearGradient id="SVGID_1_" gradientUnits="userSpaceOnUse" x1="383.3394" y1="-6.9203" x2="415.8633" y2="735.6115" gradientTransform="matrix(1.3448 0 0 1.0324 -256.9833 4.3437)">
			<stop  offset="0" style="stop-color:#22566A"/>
			<stop  offset="0.2942" style="stop-color:#2D6E7F"/>
			<stop  offset="0.3153" style="stop-color:#2D7083"/>
			<stop  offset="0.5392" style="stop-color:#3A99B2"/>
			<stop  offset="0.6235" style="stop-color:#54ACBF"/>
			<stop  offset="0.6486" style="stop-color:#58AEC1"/>
			<stop  offset="0.8293" style="stop-color:#86BBC7"/>
			<stop  offset="1" style="stop-color:#E5C6AA"/>
		</linearGradient>
		<rect x="2.4" y="-0.15" class="st0" width="556.21" height="764.29"/>
		
			<linearGradient id="SVGID_00000138562629883521257420000017922652390528835501_" gradientUnits="userSpaceOnUse" x1="351.2013" y1="-3.3591" x2="383.7253" y2="739.1726">
			<stop  offset="0" style="stop-color:#22566A"/>
			<stop  offset="0.2942" style="stop-color:#2D6E7F"/>
			<stop  offset="0.3153" style="stop-color:#2D7083"/>
			<stop  offset="0.5392" style="stop-color:#3A99B2"/>
			<stop  offset="0.6235" style="stop-color:#54ACBF"/>
			<stop  offset="0.6486" style="stop-color:#58AEC1"/>
			<stop  offset="0.8293" style="stop-color:#86BBC7"/>
			<stop  offset="1" style="stop-color:#E5C6AA"/>
		</linearGradient>
		<path style="fill:url(#SVGID_00000138562629883521257420000017922652390528835501_);" d="M145.01-0.04
			c137.55-0.2,275.11,0.15,412.66,0c-2.18,246.7,2.91,493.57,0,740.26c-16.79,0-16.79,0-33.58,0
			c-0.54-152.1-3.13-304.21-0.75-456.32c-0.75-0.93-0.75-0.93-1.49-1.87c0.02-0.99-0.02-1.99,0-2.98
			c0.12-6.68,1.22-30.19-1.87-33.58C332.5,122.72,332.5,122.72,145.01-0.04z"/>
		<path class="st2" d="M111.43,743.21c-2.33,7.92,3.98,20.01,5.22,6.72c1.12,0.37,1.12,0.37,2.24,0.75c0.2,3.28,1.02,3.72,1.49,5.97
			c0.02,0.12,0.26-0.73,0.75,2.24c0.26,1.59-0.18,3.56,0,5.22c-0.75,0-1.49,0-2.24,0c2.27-4.97-9.7-0.95-16.04-2.24
			c-0.73-0.15,0-2-0.75-2.24c-0.21-0.07-0.69,2.12-1.49,2.24c-8.94,1.29-18.99-1.56-27.98,0.75c-0.18-3.5-0.73-6.84-0.75-10.45
			c0.62,3.09,7.72,3.18,8.21,1.87c0-5.78,0-5.78,0-11.57c1.78,0.01,8.61-1.67,9.7,0.37c0.56,1.05-0.69,16.79,0.37,16.79
			c0.75-8.95,0.75-8.95,1.49-17.91C98.65,742.88,104.22,742.18,111.43,743.21z"/>
		<path class="st3" d="M403.21,759.62c0,2.24,0,2.24,0,4.48c-33.58,0.04-67.16-0.02-100.74,0c-0.47-3.51,0.72-4.93,0.75-5.22
			C353.21,759.25,353.21,759.25,403.21,759.62z"/>
		<path class="st4" d="M17.41,249.2c-7.46,0-7.46,0-14.92,0c0.01-19.65-0.02-39.3,0-58.95C8.88,209.53,12.3,229.61,17.41,249.2z"/>
		<path class="st5" d="M557.68,743.21c-0.06,3.97,0.16,7.98,0,11.94c-16.42,0-16.42,0-32.83,0c0.01-0.62-0.73,1.25-0.75-11.94
			C540.89,743.21,540.89,743.21,557.68,743.21z"/>
		<path class="st6" d="M409.93,638.74c0.21,33.8,1.78,67.68,1.49,101.49c0,0.08-1.49-0.23-1.49,0.37c-0.03,2.75,1.49,2.46,1.49,2.61
			c-0.05,3.97,0.18,7.98,0,11.94c-0.05,0.99,0.09,2,0,2.98c-0.03,0.3-1.23-0.04-0.75,5.97c-0.99,0-1.99,0-2.98,0
			c0-62.68,0-62.68,0-125.37C408.81,638.74,408.81,638.74,409.93,638.74z"/>
		<path class="st7" d="M20.39,275.32c0.12,7.21-0.11,14.43,0,21.64c-8.95,0-8.95,0-17.91,0c0-7.21,0-14.43,0-21.64
			C11.44,275.32,11.44,275.32,20.39,275.32z"/>
		<path class="st7" d="M18.9,253.68c0.22,0.84,0.88,2.06,1.49,4.48c-1.52,2.16-0.15,7.79,0,13.43c-8.95,0-8.95,0-17.91,0
			c0-5.97,0-11.94,0-17.91C10.69,253.68,10.69,253.68,18.9,253.68z"/>
		<path class="st3" d="M251.73,758.88c-0.18,1.71,0.13,3.51,0,5.22c-19.65-0.01-39.3,0.02-58.95,0c-0.93-1.61-0.88-3.52-1.49-5.22
			C221.5,758.88,221.5,758.88,251.73,758.88z"/>
		<path class="st3" d="M450.97,759.62c-0.14,1.36,0.17,3.08,0,4.48c-13.43,0.03-26.86-0.02-40.3,0c-0.48-6.01,0.72-5.67,0.75-5.97
			C423.79,760.71,437.92,759.2,450.97,759.62z"/>
		<path class="st3" d="M515.14,759.62c0,2.24,0,2.24,0,4.48c-13.93,0.1-27.86-0.03-41.79,0c-0.43-4.98,0.74-4.25,0.75-4.48
			C494.62,759.62,494.62,759.62,515.14,759.62z"/>
		<path class="st3" d="M293.51,759.62c-0.05,1.49,0.03,2.99,0,4.48c-11.19,0.01-22.39,0.01-33.58,0
			C255.69,755.58,279.97,759.2,293.51,759.62z"/>
		<path class="st3" d="M557.68,759.62c-0.17,1.46,0.11,3.01,0,4.48c-11.69,0.08-23.38-0.1-35.07,0c0.3-0.94,1.47-4.24,1.49-4.48
			C540.89,759.62,540.89,759.62,557.68,759.62z"/>
		<path class="st8" d="M524.84,755.15c16.42,0,16.42,0,32.83,0c-0.06,1.47,0.17,3.03,0,4.48c-16.79,0-16.79,0-33.58,0
			c0.02-0.21-0.78-0.74-0.75-4.1C523.36,754.91,524.84,755.22,524.84,755.15z"/>
		<path class="st9" d="M21.14,506.65c0,4.48,0,4.48,0,8.95c-9.33,0-9.33,0-18.66,0c0-2.74,0-5.47,0-8.21
			C8.77,507.63,14.89,507.38,21.14,506.65z"/>
		<path class="st8" d="M293.51,759.62c-13.54-0.43-37.83-4.05-33.58,4.48c-0.25,0-0.5,0-0.75,0c0.01-1.49-0.01-2.98,0-4.48
			c0.01-1.86,0.67-3.66,0.75-5.22c22.08,0.15,37.79,6.25,33.58-9.7C295.44,747.78,293.64,755.77,293.51,759.62z"/>
		<path class="st3" d="M144.27,758.88c0.23,1.67,1.17,3.08,0.75,5.22c-7.96-0.01-15.92,0.01-23.88,0c-0.18-1.66,0.26-3.63,0-5.22
			C132.7,758.88,132.7,758.88,144.27,758.88z"/>
		<path class="st10" d="M118.9,764.1c-15.67-0.03-31.34,0.05-47.01,0c-0.28-1.78,0.75-1.41,0.75-1.49c9-2.31,19.05,0.54,27.98-0.75
			c0.8-0.12,1.29-2.3,1.49-2.24c0.74,0.24,0.01,2.09,0.75,2.24C109.2,763.15,121.16,759.13,118.9,764.1z"/>
		<path class="st11" d="M524.1,740.22c16.79,0,16.79,0,33.58,0c-0.01,0.99,0.02,1.99,0,2.98c-16.79,0-16.79,0-33.58,0
			c0-0.09-1.49-0.58-1.49-1.12C522.6,739.22,524.1,740.34,524.1,740.22z"/>
		<path class="st9" d="M17.41,249.2c0.37,1.43,1.08,2.88,1.49,4.48c-8.21,0-8.21,0-16.42,0c0-1.49,0-2.98,0-4.48
			C9.95,249.2,9.95,249.2,17.41,249.2z"/>
		
			<linearGradient id="SVGID_00000103985061887587208530000000646097105856256904_" gradientUnits="userSpaceOnUse" x1="495.575" y1="304.9985" x2="493.1452" y2="731.8344">
			<stop  offset="0" style="stop-color:#2C859F"/>
			<stop  offset="0.3094" style="stop-color:#55ACBF"/>
			<stop  offset="0.5507" style="stop-color:#76B8C8"/>
			<stop  offset="0.6049" style="stop-color:#7DBAC7"/>
			<stop  offset="1" style="stop-color:#E6C6AA"/>
		</linearGradient>
		<path style="fill:url(#SVGID_00000103985061887587208530000000646097105856256904_);" d="M515.89,296.96
			c-4,147.5,1.45,295.35-0.75,442.89c-20.52,0.19-20.52,0.19-41.04,0.37c-0.26-0.87-0.92-1.26-1.49-1.87
			c0.37-218.27,0.37-218.27,0.75-436.54C494.62,299.39,494.62,299.39,515.89,296.96z"/>
		<path class="st8" d="M515.14,755.15c0,2.24,0,2.24,0,4.48c-20.52,0-20.52,0-41.04,0c0-0.22-1.76-3.5-0.37-4.48
			C475.42,753.95,509.85,756.06,515.14,755.15z"/>
		
			<linearGradient id="SVGID_00000123422171057943004630000010853802181973737653_" gradientUnits="userSpaceOnUse" x1="61.4432" y1="510.82" x2="109.4036" y2="735.5988">
			<stop  offset="0" style="stop-color:#3A9EB8"/>
			<stop  offset="0.8442" style="stop-color:#83B8C4"/>
			<stop  offset="1" style="stop-color:#B4BAB9"/>
		</linearGradient>
		<path style="fill:url(#SVGID_00000123422171057943004630000010853802181973737653_);" d="M130.09,740.22
			c-1.48-0.04-8.44,0.36-8.95-0.37c-0.28-7.31,0.38-14.71,0-22.01c-0.12-2.32,0.33-8.58,0-9.33c-0.84-1.9-7.11-0.99-8.95-1.12
			c-1.48-0.1-2.99,0.06-4.48,0c-2.48-0.09-4.98,0.04-7.46,0c-1.74-0.03-3.48,0.02-5.22,0c-9.59-0.09-20.24,1.33-21.64-2.24
			c-0.1-1.11-0.23-1.32-0.75-2.24c0.14-12.03,0.73-24.18,0.75-36.19c0-0.27-1.49-4.95-1.49-5.22c0-0.28,1.49-1.21,1.49-1.49
			c-0.01-8.17-0.68-16.42-0.75-24.63c0-0.28,1.49-1.22,1.49-1.49c-0.02-2.71-1.31-7.23-1.49-18.28c2.96-1.59,2.38-4.47,0-6.34
			c1.67-10.62,0.14-20.32,0-30.6c-0.01-0.48,2.53-1.34,2.24-3.73c-0.02-0.19-2.22-2.34-2.24-2.98c-0.25-11.57,1.68-16.84,1.49-17.91
			c-0.15-0.87-2.2-1.18-2.24-1.49c-0.61-4.51,1.81-10.34-2.98-10.82c0.19-5.78-0.79-37.39,0-39.18c0.51-1.16,12.15-2.51,13.43-0.75
			c28.73,118.28,28.73,118.28,57.46,236.55C140,740.94,134.75,740.33,130.09,740.22z"/>
		
			<linearGradient id="SVGID_00000064317332819140291750000005515502435693406610_" gradientUnits="userSpaceOnUse" x1="19.6724" y1="344.8035" x2="46.4734" y2="472.6138">
			<stop  offset="0" style="stop-color:#257995"/>
			<stop  offset="1" style="stop-color:#3492AD"/>
		</linearGradient>
		<path style="fill:url(#SVGID_00000064317332819140291750000005515502435693406610_);" d="M74.87,475.31
			c-17.73,3.54-35.81,5.22-53.73,7.46c-0.99-1.31-0.69-2.28-0.75-3.73c-0.26-6.64-0.15-13.5,0-20.15c0.03-1.55-0.03-3.03,0-4.48
			c0.1-5.92,0.69-11.92,0.75-17.91c0.02-1.99-0.01-3.98,0-5.97c0.04-5.22-0.02-10.45,0-15.67c0.01-1.99-0.01-3.98,0-5.97
			c0.03-6.72-0.02-13.43,0-20.15c0-1.87,0-1.87,0-3.73c0-9.33,0-9.33,0-18.66c0-2.61,0-2.61,0-5.22c0-8.95,0-8.95,0-17.91
			c0-2.61,0-2.61,0-5.22c8.8-0.29,17.83-3.25,19.4-1.12C51.43,383.16,64.48,428.91,74.87,475.31z"/>
		<path class="st15" d="M53.23,541.73c-7.46,0-7.46,0-14.92,0c-1.49,0-1.49,0-2.98,0c-6.34,0-6.34,0-12.69,0
			c-0.03-0.23-1.09,1.18-1.49-4.48c-0.09-1.23,0.06-2.49,0-3.73c-0.31-5.94,0.23-11.96,0-17.91c0-4.48,0-4.48,0-8.95
			c3.82-0.44,34.16-6.41,35.07-4.1C55.01,514.5,59.08,542.87,53.23,541.73z"/>
		<path class="st7" d="M73.38,705.15c1.2,13.53-8.71,14.17,20.89,13.43c1.98-0.05,4.01,0.15,5.97,0c8.03-0.6,6.61,2.55,7.46-11.19
			c1.48,0.06,3-0.1,4.48,0c-0.37,5.41-0.37,5.41-0.75,10.82c4.85-0.19,4.85-0.19,9.7-0.37c0.38,7.3-0.28,14.7,0,22.01
			c0.52,0.73,7.47,0.34,8.95,0.37c-5.33,4.83-12.09-4.49-11.19,10.45c-1.12-0.37-1.12-0.37-2.24-0.75
			c1.07-11.36-3.82-6.52-5.22-6.72c-7.22-1.03-12.78-0.33-19.78-1.49c-0.75,8.95-0.75,8.95-1.49,17.91
			c-1.06,0,0.19-15.74-0.37-16.79c-1.09-2.04-7.92-0.36-9.7-0.37c-2.41-0.01-5.64-0.77-8.21-0.75c-0.02-12.97,0.59-25.87,0.75-38.8
			C73.15,703.83,73.28,704.04,73.38,705.15z"/>
		<path class="st4" d="M20.39,301.44c-0.03-1.49,0.02-2.99,0-4.48c-0.11-7.21,0.12-14.43,0-21.64c-0.02-1.24,0.03-2.49,0-3.73
			c-0.15-5.64-1.52-11.27,0-13.43c5.05,19.75,11.13,39.26,14.92,59.33C16.08,322.53,20.8,319.76,20.39,301.44z"/>
		<path class="st5" d="M143.52,754.4c-11.57,0-11.57,0-23.13,0c-1.21-15.78,0.66-10.32,20.52-11.19
			C141.88,746.91,142.74,750.65,143.52,754.4z"/>
		<path class="st8" d="M143.52,754.4c0.35,1.66,0.52,2.82,0.75,4.48c-11.57,0-11.57,0-23.13,0c-0.48-2.96-0.72-2.12-0.75-2.24
			c0-1.12,0-1.12,0-2.24C131.96,754.4,131.96,754.4,143.52,754.4z"/>
		
			<linearGradient id="SVGID_00000029020140958528363320000006991278054275521469_" gradientUnits="userSpaceOnUse" x1="188.4263" y1="504.1953" x2="227.7294" y2="734.4343">
			<stop  offset="0" style="stop-color:#46A6BE"/>
			<stop  offset="0.5815" style="stop-color:#80B8C5"/>
			<stop  offset="1" style="stop-color:#D1C1B1"/>
		</linearGradient>
		<path style="fill:url(#SVGID_00000029020140958528363320000006991278054275521469_);" d="M251.73,527.55
			c3.28,12.38-2.4,178.73,0.75,211.56c-0.84,1.9-29.42,1.12-33.58,1.12c-5.59,0-31.64,1.26-33.58-1.87
			c-15.89-75.4-36.99-149.61-54.47-224.61c-0.44-1.88-1.79-7.96-0.75-9.33C135.64,507.15,235.67,523.74,251.73,527.55z"/>
		
			<linearGradient id="SVGID_00000138536641303396603700000011561709677916412548_" gradientUnits="userSpaceOnUse" x1="154.2771" y1="342.4901" x2="210.04" y2="507.1768">
			<stop  offset="0" style="stop-color:#2A7E9A"/>
			<stop  offset="1" style="stop-color:#45A5BC"/>
		</linearGradient>
		<path style="fill:url(#SVGID_00000138536641303396603700000011561709677916412548_);" d="M92.03,349.95
			c7.2,4.18,138.57,41.09,159.32,48.5c0.56,54.47,0.56,54.47,1.12,108.95c-43.58-9.76-87.01-20.12-130.59-29.85
			c-11.27-42.19-20.68-84.9-31.34-127.23C91.29,350.13,91.29,350.13,92.03,349.95z"/>
		
			<linearGradient id="SVGID_00000050625324727610602630000007261533874887240577_" gradientUnits="userSpaceOnUse" x1="135.9501" y1="216.9405" x2="190.3224" y2="382.8771">
			<stop  offset="0" style="stop-color:#26687E"/>
			<stop  offset="1" style="stop-color:#2B849F"/>
		</linearGradient>
		<path style="fill:url(#SVGID_00000050625324727610602630000007261533874887240577_);" d="M239.79,299.2
			c3.22,1.66,8.46,4.71,11.94,5.22c2.5,14.31-2.08,64.23,0,72.38c-5.38,1.73-10.26-2.81-10.82-2.98
			c-52.3-16.07-103.86-34.3-155.59-52.24c-1.03-1.27-1.69-0.14-2.98-2.61c-2.21-4.22-18.3-79.69-23.13-92.53
			c0.75-0.56,0.75-0.56,1.49-1.12C67.99,231.69,217.82,289.19,239.79,299.2z"/>
		<path class="st5" d="M245.01,743.21c1.21,0.07,2.67-0.19,3.73,0c1.37,0.24,2.68-0.58,3.73,1.12c-0.06,3.36,0.08,6.72,0,10.07
			c-10.18,0.49-56.97,1.81-61.56,0.75c-0.97-0.22-0.86-2.09-1.87-2.24c-0.32-1.49-2-9.08-1.12-9.7
			C206.73,744.02,226.29,742.11,245.01,743.21z"/>
		<path class="st8" d="M252.47,754.4c-0.04,1.7-0.59,3.04-0.75,4.48c-30.22,0-30.22,0-60.44,0c-0.77-2.13-1.75-3.67-2.24-5.97
			c1.01,0.15,0.9,2.01,1.87,2.24C195.5,756.21,242.3,754.89,252.47,754.4z"/>
		
			<linearGradient id="SVGID_00000101061903879586368810000017167032031941909689_" gradientUnits="userSpaceOnUse" x1="445.6226" y1="309.7477" x2="416.9934" y2="731.8896">
			<stop  offset="0" style="stop-color:#2D87A1"/>
			<stop  offset="0.4198" style="stop-color:#61B0C1"/>
			<stop  offset="0.619" style="stop-color:#80B9C5"/>
			<stop  offset="1" style="stop-color:#E5C5A9"/>
		</linearGradient>
		<path style="fill:url(#SVGID_00000101061903879586368810000017167032031941909689_);" d="M450.97,301.44
			c0.37,218.83,0.37,218.83,0.75,437.66c-20.15,0.56-20.15,0.56-40.3,1.12c0.28-33.8-1.28-67.68-1.49-101.49
			c-0.7-110.92-0.1-221.9,0.75-332.82c3.47,0.02,18.96-2.88,26.86-3.73C442.07,301.7,446.39,301,450.97,301.44z"/>
		<path class="st5" d="M451.71,754.4c-20.15,0.37-20.15,0.37-40.3,0.75c0.18-3.96-0.05-7.97,0-11.94c19.59,0,19.59,0,39.18,0
			C452.44,744.59,451.64,749.61,451.71,754.4z"/>
		<path class="st8" d="M450.97,759.62c-13.04-0.43-27.18,1.08-39.55-1.49c0.09-0.98-0.05-2,0-2.98c20.15-0.37,20.15-0.37,40.3-0.75
			C451.78,758.73,451,759.36,450.97,759.62z"/>
		
			<linearGradient id="SVGID_00000088837463478141590200000002158023832721010364_" gradientUnits="userSpaceOnUse" x1="348.4649" y1="544.21" x2="356.3565" y2="733.5877">
			<stop  offset="0" style="stop-color:#6DB3C5"/>
			<stop  offset="1" style="stop-color:#E6C6AA"/>
		</linearGradient>
		<path style="fill:url(#SVGID_00000088837463478141590200000002158023832721010364_);" d="M402.46,558.14
			c0.14,60.32-0.05,120.64,0.75,180.96c-50,0.56-50,0.56-99.99,1.12c-0.31-67.66-0.73-135.31-0.75-202.97
			C335.82,543.96,369.69,548.94,402.46,558.14z"/>
		
			<linearGradient id="SVGID_00000096025564524551945220000002216951195716463530_" gradientUnits="userSpaceOnUse" x1="346.7973" y1="318.3929" x2="365.5172" y2="421.9325">
			<stop  offset="0" style="stop-color:#2F87A2"/>
			<stop  offset="1" style="stop-color:#3F9FB7"/>
		</linearGradient>
		<path style="fill:url(#SVGID_00000096025564524551945220000002216951195716463530_);" d="M403.21,306.66
			c-0.53,41.03,0.37,82.09,0,123.13c-11.65-3.83-23.84-6.55-35.45-10.45c-2.59-0.87-1.64-2.79-2.24-2.98
			c-10.54-3.52-21.84-5.48-32.46-8.95c-10.18-3.33-20-8.68-30.6-10.45c0-9.22-1.91-75.18,1.12-77.61
			c3.71-2.98,83.59-11.14,94.4-11.94C399.85,307.27,401.32,306.45,403.21,306.66z"/>
		<path class="st22" d="M402.46,444.72c0.89,5.89-0.05,79.32,0,97.01c-23.14-4.92-46.77-8.74-69.77-14.18
			c-4.42-1.05-8.97-4.19-13.43-5.22c-1.89-0.44-11.04-0.2-16.79-2.24c0-34.82-0.31-69.66,0-104.47
			C352.47,430.16,352.47,430.16,402.46,444.72z"/>
		<path class="st5" d="M403.21,754.4c-50,0.37-50,0.37-99.99,0.75c-0.03-4,0.02-7.97,0-11.94c49.81,0,49.81,0,99.62,0
			C403.55,743.71,403.21,752.73,403.21,754.4z"/>
		<path class="st8" d="M403.21,759.62c-50-0.37-50-0.37-99.99-0.75c0.01-0.19,0-2.99,0-3.73c50-0.37,50-0.37,99.99-0.75
			C403.21,756.14,403.21,757.88,403.21,759.62z"/>
		
			<linearGradient id="SVGID_00000096031884498798850370000018111955890986628795_" gradientUnits="userSpaceOnUse" x1="274.485" y1="537.1161" x2="279.5174" y2="731.8168">
			<stop  offset="0.2874" style="stop-color:#6DB3C3"/>
			<stop  offset="1" style="stop-color:#D0BEAF"/>
		</linearGradient>
		<path style="fill:url(#SVGID_00000096031884498798850370000018111955890986628795_);" d="M260.68,740.22
			c0.89-70.06-2.22-140.35-0.75-210.44c11.31,1.57,22.67,2.68,33.58,6.34c0,101.49,0,101.49,0,202.97
			C277.1,739.66,277.1,739.66,260.68,740.22z"/>
		<path class="st22" d="M292.02,410.39c0,0.87,1.49,1.55,1.49,1.87c0.07,34.45-0.2,68.9,0,103.35c-11.8-0.35-22.87-4.16-34.33-6.72
			c0-53.36,0-53.36,0-106.71c0.61,0.15,0.87-1.03,1.87-0.75C271.24,404.31,281.48,409.56,292.02,410.39z"/>
		<path class="st24" d="M292.02,322.33c0.06,0.07,1.29,0.45,1.49,1.12c0.99,3.27-0.04,58.86,0,68.28
			c-8.89,0.2-17.34-6.39-18.28-6.72c-0.94-0.32-12.64-2.39-16.04-3.73c0-36.19,0-36.19,0-72.38
			C264.89,311.23,289.05,318.89,292.02,322.33z"/>
		<path class="st5" d="M293.51,744.7c4.21,15.95-11.5,9.85-33.58,9.7c0.19-3.71-0.07-7.48,0-11.19c16.6,0,16.6,0,33.21,0
			C293.33,743.95,293.33,743.95,293.51,744.7z"/>
		<path class="st10" d="M80.09,742.46c0,5.78,0,5.78,0,11.57c-0.49,1.31-7.59,1.22-8.21-1.87c-0.02-3.48,0.01-6.96,0-10.45
			C74.45,741.69,77.68,742.45,80.09,742.46z"/>
		<path class="st10" d="M116.66,749.92c-1.25,13.3-7.55,1.2-5.22-6.72C112.84,743.41,117.72,738.56,116.66,749.92z"/>
		<path class="st10" d="M95.02,707.39c-0.37,5.6-0.37,5.6-0.75,11.19c-29.6,0.74-19.69,0.1-20.89-13.43
			C74.78,708.71,85.43,707.3,95.02,707.39z"/>
		<path class="st10" d="M121.14,717.84c-4.85,0.19-4.85,0.19-9.7,0.37c0.37-5.41,0.37-5.41,0.75-10.82
			c1.84,0.13,8.11-0.78,8.95,1.12C121.47,709.25,121.02,715.52,121.14,717.84z"/>
		<path class="st2" d="M107.7,707.39c-0.85,13.74,0.57,10.6-7.46,11.19c0-5.6,0-5.6,0-11.19
			C102.72,707.43,105.22,707.3,107.7,707.39z"/>
		<path class="st2" d="M100.24,707.39c0,5.6,0,5.6,0,11.19c-1.96,0.15-3.99-0.05-5.97,0c0.37-5.6,0.37-5.6,0.75-11.19
			C96.76,707.4,98.5,707.36,100.24,707.39z"/>
		<path class="st10" d="M74.5,723.81c3.54,0.56,3.54,0.56,7.09,1.12C84.9,745.32,68.13,741.91,74.5,723.81z"/>
		<path class="st2" d="M100.24,724.55c0,6.34,0,6.34,0,12.69c-3.33,0.29-3.45,0.36-6.72,0c0-6.34,0-6.34,0-12.69
			C96.79,724.2,96.55,723.93,100.24,724.55z"/>
		<path class="st2" d="M100.24,737.24c0-6.34,0-6.34,0-12.69c1.28,0.21,5.37-0.48,5.97,0.37
			C106.77,742.43,105.68,736.76,100.24,737.24z"/>
		<path class="st10" d="M112.55,724.55c2.43,0.19,2.43,0.19,4.85,0.37C120.07,744.89,107.17,741.66,112.55,724.55z"/>
		<path class="st10" d="M93.52,724.55c0,6.34,0,6.34,0,12.69c-0.26-0.03-0.81,1.68-5.22,0.37C87.8,719.53,88.69,725.08,93.52,724.55
			z"/>
	</g>
	<g>
		<g>
			<path class="st4" d="M281.57,190.25c-1.05,5.66,2.36,21.63-2.24,23.88c-2.41,1.18-45.15,7.41-52.98,8.95
				c-4.64,0.92-10.47,1.22-14.92,2.24c-86.19-41.79-86.19-41.79-172.38-83.58c-2.16-1.93-2.76-3.74-3.73-6.34
				c-5.26-14.05-16.11-69.93-24.63-91.04c0.37-0.93,0.37-0.93,0.75-1.87c2.29,2.21,48.5,25.47,56.34,29.85
				c25.53,14.27,50.51,29.94,76.86,42.54C188.3,143.38,236.7,163.67,281.57,190.25z"/>
			<path class="st4" d="M335.3,217.86c24.64,12.36,49.59,25.05,74.62,36.57c-7.72,0.51-9.92,2.17-10.45,2.24
				c-4.19,0.57-8.44,0.91-12.69,1.49c-6.6,0.91-13.51,1.42-20.15,2.24c-13.44,1.65-27.01,2.48-40.3,5.22
				c-20.67,1.89-18.3,4.28-36.57-2.98c-17.91-7.12-35.12-17.1-52.98-24.63c-1.26-0.53-2.47-0.99-3.73-1.49
				c0.56-1.12,0.56-1.12,1.12-2.24c18.16-2.28,37.55-4.74,54.85-8.95c2.86,0.02,5.72-0.01,8.58,0
				C316.46,221.59,316.46,221.59,335.3,217.86z"/>
		</g>
		<g>
			<path class="st25" d="M459.92,764.1c-2.98,0.01-5.97-0.01-8.95,0c0.17-1.4-0.14-3.11,0-4.48c0.03-0.26,0.81-0.89,0.75-5.22
				c-0.08-4.79,0.73-9.81-1.12-11.19c-19.59,0-19.59,0-39.18,0c0-0.15-1.52,0.14-1.49-2.61c0.01-0.61,1.49-0.3,1.49-0.37
				c20.15-0.56,20.15-0.56,40.3-1.12c-0.37-218.83-0.37-218.83-0.75-437.66c0.02-1.99-0.03-3.98,0-5.97
				c0.3-22.97-3.15-25.37,8.95-18.28C459.92,520.65,459.92,520.65,459.92,764.1z"/>
			<path class="st25" d="M408.43,305.17c-2.52,111.12,1,222.43-0.75,333.56c0,62.68,0,62.68,0,125.37c-1.49,0-2.98,0-4.48,0
				c0-2.24,0-2.24,0-4.48c0-1.74,0-3.48,0-5.22c0-1.67,0.34-10.69-0.37-11.19c-49.81,0-49.81,0-99.62,0c-0.01-1,0-2,0-2.98
				c50-0.56,50-0.56,99.99-1.12c-0.79-60.32-0.61-120.64-0.75-180.96c0-0.91,0.75-3.57,0.75-4.48c-0.01-3.99-0.74-8.1-0.75-11.94
				c-0.05-17.69,0.89-91.12,0-97.01c-0.06-0.4-0.65-2.17-0.75-2.24c2.32-0.37,1.44-6.56,1.49-12.69c0.37-41.03-0.53-82.1,0-123.13
				c0.06-4.72-0.15-9.46,0-14.18c0.32-10.46-2.65-18.52,7.46-13.81C406.88,283.23,408.67,294.73,408.43,305.17z"/>
			<path class="st25" d="M521.86,279.05c-0.02,0.99,0.02,1.99,0,2.98c-0.05,3.07-1.45,7.75-1.49,10.82
				c-2.18,157.02,1.63,314.21,0,471.24c-1.74,0.01-3.48-0.01-5.22,0c0-2.24,0-2.24,0-4.48c0-2.24,0-2.24,0-4.48
				c-0.32-1.93,0.58-11.26-0.37-11.94c-1.67-1.19-39.1,1.11-41.04,0c-1.5-0.86,0.42-2.84,0.37-2.98
				c20.52-0.19,20.52-0.19,41.04-0.37c2.19-147.54-3.26-295.38,0.75-442.89c0.1-3.71,1.03-7.31,0.75-11.19
				C522.55,289.45,517.16,282.12,521.86,279.05z"/>
			<path class="st11" d="M300.98,319.35c-0.13,0.09,0.33,1.26-0.37,2.24c-0.19,0.26-2.14-0.45-2.61,0.37
				c-1.38,2.41-0.69,48.71-0.75,55.59c-1.02,128.82,0.78,257.72,0.75,386.55c-1.49,0-2.98,0-4.48,0c0.03-1.49-0.05-2.99,0-4.48
				c0.12-3.86,1.93-11.84,0-14.92c-0.19-0.75-0.19-0.75-0.37-1.49c-16.6,0-16.6,0-33.21,0c0.07-3.84,0.74-2.83,0.75-2.98
				c16.42-0.56,16.42-0.56,32.83-1.12c0-101.49,0-101.49,0-202.97c-10.91-3.66-22.27-4.77-33.58-6.34
				c-0.81-0.11-1.11-1.11-2.24-0.75c5.07-2.53,13.11,3.34,17.16-0.75c6.35,1.15,12.6,3,19.03,3.73c1.54-1.16-0.36-13.97-0.37-16.42
				c-0.2-34.45,0.07-68.9,0-103.35c0-0.31-1.49-1-1.49-1.87c0-0.71,0.75-0.78,0.75-1.49c0-0.08,1.49,0.23,1.49-0.37
				c-0.01-5.59-0.72-11.31-0.75-16.79c-0.04-9.42,0.99-65.01,0-68.28c-0.2-0.67-1.43-1.05-1.49-1.12c3.35-9.62,0.6-25.66,1.49-37.31
				c0.96-0.21,7.08-0.15,7.46,0.37c1.11,4.08-2.8,3.84-2.98,4.48c-0.41,1.4-0.69,27.82,0,29.1
				C298.39,319.71,300.15,319.23,300.98,319.35z"/>
			<path class="st26" d="M302.47,411.14c0.03,0.04,0.7,0.72,0.75,0.75c-1.12-0.1-0.73,1.69-0.75,3.73c-0.31,34.81,0,69.66,0,104.47
				c0,15.77,1.49,13.43,1.49,14.18c0,0.21-1.49-1.5-1.49,2.98c0.01,67.66,0.44,135.31,0.75,202.97c0,0.98-0.01,1.98,0,2.98
				c0.02,3.97-0.03,7.94,0,11.94c0,0.74,0.01,3.55,0,3.73c-0.02,0.3-1.22,1.72-0.75,5.22c-1.49,0-2.98,0-4.48,0
				c0.04-128.82-1.77-257.73-0.75-386.55c0.91-0.63,3.66,1.67,3.73,1.87C302.26,383.24,300.4,408.14,302.47,411.14z"/>
			<path class="st6" d="M524.1,740.22c0,0.12-1.5-1-1.49,1.87c0,0.54,1.49,1.03,1.49,1.12c0.02,13.19,0.76,11.32,0.75,11.94
				c0,0.08-1.49-0.23-1.49,0.37c-0.03,3.36,0.77,3.9,0.75,4.1c-0.02,0.23-1.2,3.54-1.49,4.48c-0.75,0.01-1.49-0.01-2.24,0
				c1.63-157.04-2.18-314.22,0-471.24c0.04-3.07,1.44-7.75,1.49-10.82c0.75,0.93,0.75,0.93,1.49,1.87
				C520.97,436.01,523.56,588.12,524.1,740.22z"/>
			<path class="st27" d="M68.9,541.73c2.59,2.82,1.18,6.95,1.49,10.82c0.06,0.78,2.22,1.23,2.24,1.49c0.01,0.27-1.51,4.95-1.49,5.22
				c0.72,15.52-0.31,30.86,0,46.27c0.06,2.8,1.45,7.28,1.49,10.07c0.18,11.05,1.47,15.57,1.49,18.28c0,0.28-1.49,1.22-1.49,1.49
				c0.06,8.21,0.74,16.46,0.75,24.63c0,0.28-1.49,1.21-1.49,1.49c0,0.27,1.49,4.95,1.49,5.22c-0.01,12.02-0.61,24.17-0.75,36.19
				c-0.15,12.94-0.77,25.83-0.75,38.8c0.01,3.48-0.02,6.97,0,10.45c0.02,3.6,0.57,6.95,0.75,10.45c0,0.08-1.03-0.28-0.75,1.49
				c-1.49-0.01-2.98,0.01-4.48,0c1.51-73.91-2.33-148.13,0-222C67.43,541.49,68.9,541.8,68.9,541.73z"/>
			<g>
				<path class="st7" d="M20.39,458.89c-0.15,6.65-0.26,13.51,0,20.15c-8.95,0.37-8.95,0.37-17.91,0.75c0-7.21,0-14.43,0-21.64
					C11.44,458.52,11.44,458.52,20.39,458.89z"/>
				<path class="st7" d="M21.14,388.75c-0.02,6.72,0.03,13.43,0,20.15c-9.33,0.37-9.33,0.37-18.66,0.75c0-6.72,0-13.43,0-20.15
					C11.81,389.12,11.81,389.12,21.14,388.75z"/>
				<path class="st7" d="M21.14,366.36c0,9.33,0,9.33,0,18.66c-9.33,0-9.33,0-18.66,0c0-6.22,0-12.44,0-18.66
					C11.81,366.36,11.81,366.36,21.14,366.36z"/>
				<path class="st7" d="M21.14,343.23c0,8.95,0,8.95,0,17.91c-9.33,0-9.33,0-18.66,0c0-5.97,0-11.94,0-17.91
					C11.81,343.23,11.81,343.23,21.14,343.23z"/>
				<path class="st7" d="M21.14,436.51c-0.05,5.99-0.64,11.99-0.75,17.91c-8.95,0-8.95,0-17.91,0c0-5.97,0-11.94,0-17.91
					C11.81,436.51,11.81,436.51,21.14,436.51z"/>
				<path class="st7" d="M21.14,414.87c-0.02,5.22,0.04,10.45,0,15.67c-4.99,2.95-12.49,0.9-18.66,1.49c0-5.97,0-11.94,0-17.91
					C11.81,414.49,11.81,414.49,21.14,414.87z"/>
				<path class="st9" d="M21.14,338.01c0,2.61,0,2.61,0,5.22c-9.33,0-9.33,0-18.66,0c0-1.99,0-3.98,0-5.97
					C8.7,337.49,14.91,338.21,21.14,338.01z"/>
				<path class="st9" d="M21.14,361.14c0,2.61,0,2.61,0,5.22c-9.33,0-9.33,0-18.66,0c0-1.74,0-3.48,0-5.22
					C11.81,361.14,11.81,361.14,21.14,361.14z"/>
				<path class="st9" d="M21.14,408.9c-0.01,1.99,0.01,3.98,0,5.97c-9.33-0.37-9.33-0.37-18.66-0.75c0-1.49,0-2.98,0-4.48
					C11.81,409.27,11.81,409.27,21.14,408.9z"/>
				<path class="st9" d="M21.14,430.54c-0.01,1.99,0.02,3.98,0,5.97c-9.33,0-9.33,0-18.66,0c0-1.49,0-2.98,0-4.48
					C8.65,431.44,16.15,433.49,21.14,430.54z"/>
				<path class="st9" d="M21.14,385.02c0,1.87,0,1.87,0,3.73c-9.33,0.37-9.33,0.37-18.66,0.75c0-1.49,0-2.98,0-4.48
					C11.81,385.02,11.81,385.02,21.14,385.02z"/>
				<path class="st9" d="M20.39,296.96c0.02,1.49-0.03,2.99,0,4.48c-8.95,0-8.95,0-17.91,0c0-1.49,0-2.98,0-4.48
					C11.44,296.96,11.44,296.96,20.39,296.96z"/>
				<path class="st9" d="M20.39,479.04c0.06,1.45-0.24,2.42,0.75,3.73c-6.22,0.78-12.41,1.66-18.66,2.24c0-1.74,0-3.48,0-5.22
					C11.44,479.42,11.44,479.42,20.39,479.04z"/>
				<path class="st9" d="M20.39,454.42c-0.03,1.45,0.03,2.93,0,4.48c-8.95-0.37-8.95-0.37-17.91-0.75c0-1.24,0-2.49,0-3.73
					C11.44,454.42,11.44,454.42,20.39,454.42z"/>
				<path class="st9" d="M20.39,271.59c0.03,1.24-0.02,2.49,0,3.73c-8.95,0-8.95,0-17.91,0c0-1.24,0-2.49,0-3.73
					C11.44,271.59,11.44,271.59,20.39,271.59z"/>
				<g>
					<path class="st7" d="M50.99,660.38c0.05,2.03-0.04,4.03,0,5.97c-0.99-0.01-1.99,0.02-2.98,0c-4.3-0.1-8.74-1.52-8.95-1.12
						c1.79,5.82-0.24,11.46,0,12.69c0.55,2.83,4.81,1.93,8.95,2.61c0.94,0.15,2.02-0.1,2.98,0c0.03,1.8-0.01,3.48,0,5.22
						c-2.43-0.92-2.51,0.04-2.98,0c-1.71-0.14-8.02-1.7-8.95-0.37c-1.03,1.45,1.84,8.77-1.49,11.57
						c-0.27-12.49,1.33-13.14-11.19-11.19c-3.42-1.72-3.42,12.91,0,11.19c0.17,0.08,0.48-0.06,0.75,0c1.12,5.1-0.74,3.45-1.49,5.97
						c-0.02,0.08-1.3-0.28-1.49,0.37c-0.31,1.03-0.66,13.03,1.49,13.06c12.02,2.55,4.06,1.22,0,4.48c-3.25-0.13-2.05,3.43-2.24,6.72
						c-10.45,0-10.45,0-20.89,0c-0.09-10.45,0.04-20.9,0-31.34c24.14,0.87,24.42-3.26,0-2.24c-0.03-7.46,0.02-14.92,0-22.39
						c3,0.45,19.68-0.59,20.52,0c1.49,1.06-1.58,9.3,2.61,8.95c18.21,3.09,9.67-1.62,12.69-14.55c-5.97-0.19-5.97-0.19-11.94-0.37
						c0-1.49,0.01-2.99,0-4.48c9.27,1.66,20.19-3.13,21.27-2.98C48.31,658.23,46.85,661.17,50.99,660.38z"/>
					<path class="st7" d="M48,643.21c0.97-0.11,2,0.07,2.98,0c0.12,1.73-0.08,3.49,0,5.22c-4.26,0.49-23.41-0.43-25.37,0.75
						c-5.05,3.04-0.47,18.63-2.61,20.15c-0.84,0.59-17.52-0.45-20.52,0c-0.02-8.21,0.01-16.42,0-24.63c3.72,0.4,19.57-0.54,20.52,0
						c0.39,0.22,2.1,8.55,3.36-0.75c5.6-0.19,5.6-0.19,11.19-0.37c-0.68-16.94,2.09-18.21,1.49-0.75
						C43.89,645.25,45.06,643.54,48,643.21z"/>
					<path class="st7" d="M21.14,515.61c0.23,5.95-0.31,11.97,0,17.91c-9.33,0-9.33,0-18.66,0c0-5.97,0-11.94,0-17.91
						C11.81,515.61,11.81,515.61,21.14,515.61z"/>
					<path class="st28" d="M25.62,649.18c1.02,3.82,0.71,8.03,0.75,11.94c0.01,1.49,0,2.99,0,4.48c0,4.78,0.58,10.39-0.75,14.92
						c-4.19,0.34-1.12-7.9-2.61-8.95c-0.84-0.59-17.52,0.45-20.52,0c0-0.75,0-1.49,0-2.24c3-0.45,19.68,0.59,20.52,0
						C25.14,667.81,20.56,652.23,25.62,649.18z"/>
					<path class="st9" d="M21.14,533.52c0.06,1.24-0.09,2.5,0,3.73c-9.33,0.37-9.33,0.37-18.66,0.75c0-1.49,0-2.98,0-4.48
						C11.81,533.52,11.81,533.52,21.14,533.52z"/>
					<path class="st9" d="M23.38,727.54c-0.04,0.74-0.02,1.5,0,2.24c-10.45,0-10.45,0-20.89,0c-0.01-0.75,0.01-1.49,0-2.24
						C12.93,727.54,12.93,727.54,23.38,727.54z"/>
					<path class="st9" d="M2.48,696.2c0-0.75,0-1.49,0-2.24C26.9,692.93,26.62,697.07,2.48,696.2z"/>
				</g>
			</g>
			<g>
				<path class="st7" d="M145.01-0.04C332.5,122.72,332.5,122.72,519.99,245.47c3.09,3.39,1.98,26.9,1.87,33.58
					c-4.7,3.07,0.69,10.4-5.22,6.72c-0.3-4.04,1.21-5.97-1.87-8.95c-2.66-2.58-55.94-30.63-64.92-35.82
					C312.74,161.8,176.62,80.91,40.54-0.04C75.36-0.31,110.2,0.02,145.01-0.04z"/>
				<g>
					
						<linearGradient id="SVGID_00000137133268601973280530000010903302197519210646_" gradientUnits="userSpaceOnUse" x1="-63.9775" y1="100.8433" x2="388.5041" y2="445.2213">
						<stop  offset="0" style="stop-color:#55403A"/>
						<stop  offset="0.3806" style="stop-color:#765541"/>
						<stop  offset="0.8753" style="stop-color:#E7AF5C"/>
					</linearGradient>
					<path style="fill:url(#SVGID_00000137133268601973280530000010903302197519210646_);" d="M40.54-0.04
						C176.62,80.91,312.74,161.8,449.85,241c8.99,5.19,62.26,33.24,64.92,35.82c3.07,2.99,1.57,4.91,1.87,8.95
						c0.29,3.88-0.65,7.48-0.75,11.19c-21.27,2.43-21.27,2.43-42.54,4.85c-0.37,218.27-0.37,218.27-0.75,436.54
						c0.58,0.61,1.23,1,1.49,1.87c0.04,0.14-1.88,2.13-0.37,2.98c1.94,1.11,39.37-1.19,41.04,0c0.96,0.68,0.06,10.01,0.37,11.94
						c-5.29,0.91-39.73-1.2-41.42,0c-1.38,0.98,0.38,4.25,0.37,4.48c0,0.23-1.18-0.51-0.75,4.48c-4.48,0.01-8.95-0.01-13.43,0
						c0-243.46,0-243.46,0-486.91c-12.11-7.09-8.65-4.69-8.95,18.28c-2.52-6.68-1.33-14.17-1.49-21.27
						c-0.01-0.26,1.52-1.26,1.49-1.49c-0.32-2.53-36.33-16.12-41.04-18.28c-25.03-11.52-49.98-24.21-74.62-36.57
						c-9.75-4.89-19.32-10.67-29.1-15.67c-8.11-4.14-16.24-8.36-24.63-11.94c-44.87-26.58-93.28-46.87-136.93-75.37
						c-26.35-12.59-51.33-28.26-76.86-42.54c-7.84-4.38-54.05-27.64-56.34-29.85c-4.83-4.66-4.37-14.71-8.95-18.66
						c0.1-7.96-0.07-15.92,0-23.88C15.17-0.11,27.86,0.06,40.54-0.04z"/>
					<path class="st5" d="M473.73,743.95c19.78,0,19.78,0,39.55,0c0.56,4.66,0.56,4.66,1.12,9.33c-20.33,0.19-20.33,0.19-40.67,0.37
						C473.73,748.8,473.73,748.8,473.73,743.95z"/>
				</g>
			</g>
			<g>
				<path class="st30" d="M11.44,42.5c-0.37,0.93-0.37,0.93-0.75,1.87c8.52,21.11,19.37,76.99,24.63,91.04
					c0.97,2.61,1.57,4.42,3.73,6.34c-0.23,16,9.42,36.35,11.19,53.36c4.54,7.68,4.78,25.28,10.45,30.22
					c-0.75,0.56-0.75,0.56-1.49,1.12c4.84,12.84,20.92,88.31,23.13,92.53c1.3,2.48,1.96,1.34,2.98,2.61
					c-3.45,0.29,1.83,16.9,4.48,23.88c0.11,0.29-3.11,1.38,2.24,4.48c-0.75,0.19-0.75,0.19-1.49,0.37
					c10.67,42.33,20.07,85.05,31.34,127.23c1.89,7.07,3.7,13.92,5.97,20.89c0.11,0.35-1.81,3.97,2.24,5.97
					c-1.05,1.37,0.31,7.45,0.75,9.33c17.48,75.01,38.58,149.22,54.47,224.61c1.94,3.13,27.99,1.86,33.58,1.87
					c4.81,4.14,22.4-1.16,26.12,2.98c-18.72-1.1-38.28,0.82-57.09,0c-0.88,0.62,0.8,8.21,1.12,9.7c0.49,2.3,1.47,3.84,2.24,5.97
					c0.61,1.71,0.56,3.61,1.49,5.22c-5.97-0.01-11.94,0.01-17.91,0C119.05,534.6,63.33,305.06,2.48,76.83
					c0.05-17.65-0.23-35.33,0-52.98C7.07,27.79,6.61,37.84,11.44,42.5z"/>
				<g>
					<path class="st7" d="M174.86,764.1c-9.95-0.01-19.9,0.01-29.85,0c0.42-2.14-0.52-3.55-0.75-5.22c-0.23-1.66-0.4-2.82-0.75-4.48
						c-0.78-3.75-1.64-7.49-2.61-11.19c-19.86,0.88-21.74-4.59-20.52,11.19c0,1.12,0,1.12,0,2.24c-0.48-2.25-1.3-2.69-1.49-5.97
						c-0.89-14.94,5.86-5.61,11.19-10.45c4.66,0.11,9.91,0.72,9.7-1.87c-28.73-118.28-28.73-118.28-57.46-236.55
						c-1.28-1.76-12.92-0.41-13.43,0.75c-0.79,1.79,0.19,33.39,0,39.18c0,0.08-1.47-0.24-1.49,0.37c-2.33,73.87,1.51,148.1,0,222
						c-4.97-0.02-9.95,0.02-14.92,0c0-4.1,0-4.1,0-8.21c0-6.53,0-6.53,0-13.06c-0.59-1.49-3.68-0.24-4.48-0.37
						c-3.51-0.58-5.62-0.06-8.95,0c-0.5,0.01-1-0.02-1.49,0c-2.61,0.11-10.22-0.61-11.94,0c-3.02,0.49-0.85,13.59-1.49,21.64
						c-7.21-0.11-14.43,0.08-21.64,0c-0.06-11.44,0.08-22.89,0-34.33c10.45,0,10.45,0,20.89,0c0.08,3.35-0.66,9.09,2.24,6.72
						c6.34,0.37,6.34,0.37,12.69,0.75c0.37-0.37,0.37-0.37,0.75-0.75c2.98,1.8,6.04,0.37,8.95,0c0.22-0.03,3.34,2.2,4.48-0.37
						c0.28-0.64-0.01-11.12,0-13.81c0.01-1.88-0.73-4.9-0.75-6.72c-0.03-4.45-0.73-9.12-0.75-13.43c0-1.49,0-2.97,0-4.48
						c-0.01-4,0.03-7.91,0-11.94c-0.01-1.74,0.03-3.42,0-5.22c-0.07-4.7,0.09-9.39,0-14.18c-0.04-1.94,0.05-3.93,0-5.97
						c-0.09-4.02,0.2-7.74,0-11.94c-0.08-1.73,0.12-3.5,0-5.22c-1.35-19.15-2.72-18.3-2.98,0c-2.94,0.33-4.11,2.03-8.95-0.37
						c0.6-17.46-2.18-16.19-1.49,0.75c-5.6,0.19-5.6,0.19-11.19,0.37c0.4-2.96,0.92-16.15-2.98-11.57
						c1.42,14.76-1.09,9.07-20.89,10.07c-0.02-12.69,0.02-25.37,0-38.06c5.06,0.53,18.16-0.72,20.52,0c1.4,0.43,0.91,2.72,1.49,2.98
						c0.65,0.29,2.12-4.35,12.69-0.75c3.05-4.48-2.47-7.52,3.36-10.82c-7.81-0.12-25.6-1.98-16.42,2.24
						c1.83,6.66-10.35,3.34-21.64,4.1c-0.01-11.94,0.01-23.88,0-35.82c24.03,1.64,23.93-2.29,0-1.49c-0.01-8.95,0.01-17.91,0-26.86
						c9.33-0.37,9.33-0.37,18.66-0.75c0.4,5.65,1.46,4.24,1.49,4.48c0.52,3.97-1.09,11.05,1.12,11.94
						c0.61,0.24,11.02-0.83,13.06-0.75c0.45,0.02,0.39,0,0.75,0c12.86-0.1,16,4.6,15.67-11.19c5.85,1.14,1.78-27.22,2.98-39.18
						c-0.91-2.3-31.26,3.66-35.07,4.1c-6.25,0.73-12.37,0.98-18.66,0.75c0-3.23,0-6.47,0-9.7c37.12-3.73,37.12-3.73,74.25-7.46
						c3.82-1.26-0.97-10.94-1.87-14.92c-10.39-46.4-23.44-92.15-34.33-138.43c-1.57-2.14-10.6,0.83-19.4,1.12
						c-6.23,0.2-12.44-0.52-18.66-0.75c0.01-11.94-0.01-23.88,0-35.82c8.95,0,8.95,0,17.91,0c0.41,18.31-4.31,21.09,14.92,16.04
						c-3.8-20.07-9.87-39.58-14.92-59.33c-0.62-2.41-1.27-3.63-1.49-4.48c-0.42-1.6-1.12-3.05-1.49-4.48
						c-5.11-19.59-8.53-39.68-14.92-58.95c0.03-37.81-0.11-75.62,0-113.43C63.33,305.06,119.05,534.6,174.86,764.1z"/>
					<g>
						<g>
							<path class="st10" d="M26.36,643.96c-1.25,9.29-2.97,0.97-3.36,0.75c-0.95-0.54-16.8,0.4-20.52,0c0-0.75,0-1.49,0-2.24
								c19.8-1.01,22.32,4.68,20.89-10.07C27.29,627.81,26.76,641,26.36,643.96z"/>
							<path class="st31" d="M2.48,566.35c0-0.5,0-0.99,0-1.49C26.42,564.06,26.52,567.99,2.48,566.35z"/>
						</g>
						<g>
							<path class="st10" d="M2.48,604.41c0-0.75,0-1.49,0-2.24c11.29-0.76,23.47,2.56,21.64-4.1c-9.18-4.22,8.61-2.36,16.42-2.24
								c-5.83,3.3-0.31,6.34-3.36,10.82c-10.56-3.6-12.04,1.04-12.69,0.75c-0.59-0.26-0.09-2.55-1.49-2.98
								C20.65,603.68,7.54,604.94,2.48,604.41z"/>
							<path class="st28" d="M25.62,742.46c0,10.82,0,10.82,0,21.64c-0.5-0.01-1,0.01-1.49,0C24.77,756.05,22.6,742.95,25.62,742.46
								z"/>
							<path class="st10" d="M24.5,559.64c6.72,0,6.72,0,13.43,0c0.19,5.04,0.19,5.04,0.37,10.07
								C27.58,572.26,19.56,573.03,24.5,559.64z"/>
							<path class="st10" d="M48.38,559.64c1.68,0.56,1.68,0.56,3.36,1.12C53.41,602.61,45.73,599.77,48.38,559.64z"/>
							<path class="st10" d="M48.38,611.87c1.31,0.19,1.31,0.19,2.61,0.37C52.33,631.23,46.31,629.39,48.38,611.87z"/>
							<path class="st10" d="M50.99,643.21c-0.98,0.07-2.01-0.11-2.98,0C48.27,624.92,49.64,624.06,50.99,643.21z"/>
							<path class="st10" d="M48.38,594.71c1.31,0.19,1.31,0.19,2.61,0.37C52.29,612.18,46.21,610.87,48.38,594.71z"/>
							<path class="st28" d="M23.75,612.62c1.31,0.93,1.31,0.93,2.61,1.87C25.23,631.07,23.48,628.87,23.75,612.62z"/>
							<path class="st10" d="M37.93,611.87c0.19,0.19,0.19,0.19,0.37,0.37C41.03,629.34,35.76,629.06,37.93,611.87z"/>
							<path class="st28" d="M24.5,577.55c0.37,0,0.37,0,0.75,0C27.08,593.66,22.66,593.66,24.5,577.55z"/>
							<path class="st10" d="M37.18,576.8c1.71,16.59-0.87,17.46-0.37,0.37C37,576.99,37,576.99,37.18,576.8z"/>
						</g>
					</g>
				</g>
			</g>
			<path class="st32" d="M410.67,305.92c-0.84,110.92-1.45,221.9-0.75,332.82c-1.12,0-1.12,0-2.24,0
				c1.74-111.14-1.78-222.44,0.75-333.56C409.35,305.59,409.45,305.91,410.67,305.92z"/>
			<g>
				<path class="st11" d="M2.48,497.7c0-4.23,0-8.46,0-12.69c6.24-0.58,12.44-1.46,18.66-2.24c17.92-2.25,36-3.92,53.73-7.46
					c0.89,3.99,5.69,13.67,1.87,14.92C39.61,493.97,39.61,493.97,2.48,497.7z"/>
				<g>
					
						<linearGradient id="SVGID_00000057833961966317482850000003046400924972389250_" gradientUnits="userSpaceOnUse" x1="134.5956" y1="479.6859" x2="261.7059" y2="525.3607">
						<stop  offset="0" style="stop-color:#524044"/>
						<stop  offset="1" style="stop-color:#BB8D57"/>
					</linearGradient>
					<path style="fill:url(#SVGID_00000057833961966317482850000003046400924972389250_);" d="M252.47,507.4
						c1.03,0.23,2,0.53,2.98,0.75c1.22,0.27,2.47,0.46,3.73,0.75c11.45,2.56,22.53,6.37,34.33,6.72c0.01,2.44,1.91,15.26,0.37,16.42
						c-6.43-0.73-12.68-2.58-19.03-3.73c-8.2-1.49-16.45-2.88-24.63-4.48c-40.87-8.01-81.51-17.34-122.38-25.37
						c-2.27-6.98-4.08-13.82-5.97-20.89C165.46,487.28,208.89,497.64,252.47,507.4z"/>
					<path class="st25" d="M250.23,523.82c-1.96,2.99,0.78,1.05,1.49,3.73c-16.05-3.8-116.08-20.39-121.64-23.13
						c-4.05-2-2.12-5.62-2.24-5.97C168.72,506.48,209.36,515.81,250.23,523.82z"/>
					<g>
						<path class="st34" d="M402.46,541.73c0.01,3.84,0.74,7.95,0.75,11.94c-49.62-9.7-49.62-9.7-99.25-19.4
							c0-0.75-1.49,1.59-1.49-14.18c5.75,2.04,14.9,1.8,16.79,2.24c4.46,1.03,9.01,4.18,13.43,5.22
							C355.7,532.99,379.33,536.81,402.46,541.73z"/>
						<path class="st35" d="M303.96,534.26c49.62,9.7,49.62,9.7,99.25,19.4c0,0.9-0.75,3.57-0.75,4.48
							c-32.77-9.2-66.64-14.18-99.99-20.89C302.47,532.76,303.96,534.47,303.96,534.26z"/>
					</g>
				</g>
			</g>
			<path class="st36" d="M397.99,307.41c-10.81,0.8-90.69,8.96-94.4,11.94c-3.03,2.43-1.11,68.39-1.12,77.61c0,4.73,0,9.45,0,14.18
				c-2.07-2.99-0.21-27.9-1.49-31.71c-0.07-0.2-2.82-2.5-3.73-1.87c0.05-6.88-0.63-53.18,0.75-55.59c0.47-0.82,2.42-0.11,2.61-0.37
				c0.7-0.98,0.25-2.14,0.37-2.24c3.12-2.32,35.62-6.51,42.54-7.46c14.03-1.94,28.44-2.86,42.54-4.48
				C390.64,306.88,395.53,304.35,397.99,307.41z"/>
			<g>
				
					<linearGradient id="SVGID_00000056422815776620056110000015137625904692653491_" gradientUnits="userSpaceOnUse" x1="98.7068" y1="321.8585" x2="258.7085" y2="402.3224">
					<stop  offset="0" style="stop-color:#41333A"/>
					<stop  offset="0.6" style="stop-color:#614C4B"/>
					<stop  offset="1" style="stop-color:#9B7555"/>
				</linearGradient>
				<path style="fill:url(#SVGID_00000056422815776620056110000015137625904692653491_);" d="M85.32,321.59
					c51.73,17.93,103.29,36.16,155.59,52.24c0.56,0.17,5.44,4.71,10.82,2.98c0.67,2.61,2.5,1.9,2.98,2.24
					c1.65,1.15,2.67,1.53,4.48,2.24c3.41,1.34,15.1,3.41,16.04,3.73c0.94,0.32,9.39,6.91,18.28,6.72c0.02,5.48,0.73,11.2,0.75,16.79
					c0,0.61-1.49,0.3-1.49,0.37c-86.38-26.86-86.38-26.86-172.75-53.73c-9.94-3.86-19.31-7.38-30.22-9.7
					C87.14,338.49,81.86,321.88,85.32,321.59z"/>
				<path class="st38" d="M292.77,408.9c0,0.71-0.75,0.78-0.75,1.49c-10.54-0.83-20.78-6.08-30.97-8.95c-1-0.28-1.25,0.9-1.87,0.75
					c-0.23-0.06,0.17-2.89-3.73-1.87c0,53.92,0,53.92,0,107.83c-0.98-0.22-1.96-0.52-2.98-0.75c-0.56-54.47-0.56-54.47-1.12-108.95
					c-20.75-7.41-152.12-44.33-159.32-48.5c-5.35-3.1-2.13-4.19-2.24-4.48c10.91,2.32,20.28,5.84,30.22,9.7
					C206.39,382.03,206.39,382.03,292.77,408.9z"/>
				<path class="st34" d="M403.21,429.79c-0.06,6.12,0.83,12.32-1.49,12.69c-3.14-2.48-59.65-18.52-69.4-21.64
					c-6.86-8.92,2.28-4.63,0.75-13.43c10.62,3.47,21.93,5.43,32.46,8.95c0.6,0.2-0.35,2.12,2.24,2.98
					C379.37,423.24,391.55,425.96,403.21,429.79z"/>
				<path class="st35" d="M332.32,420.84c9.75,3.12,66.26,19.16,69.4,21.64c0.09,0.07,0.69,1.84,0.75,2.24
					c-50-14.55-50-14.55-99.99-29.1c0.02-2.04-0.37-3.83,0.75-3.73C304.45,412.77,328.19,419.51,332.32,420.84z"/>
				<path class="st39" d="M333.06,407.4c1.54,8.8-7.6,4.51-0.75,13.43c-4.13-1.32-27.87-8.06-29.1-8.95
					c-0.04-0.03-0.72-0.7-0.75-0.75c0-4.73,0-9.45,0-14.18C313.07,398.72,322.88,404.08,333.06,407.4z"/>
			</g>
			<g>
				<path class="st40" d="M306.2,202.19c-3.13,9.57-0.4,18.13-0.75,19.03c-0.57,1.48-13.89,2.06-16.04,2.61
					c-0.64,0.16-0.3,1.47-0.37,1.49c-2.75-0.02-5.49-0.18-8.21,0.37c-1.28-6.93,0.56-10.62-1.49-11.57
					c4.6-2.25,1.19-18.22,2.24-23.88C289.96,193.83,298.09,198.05,306.2,202.19z"/>
				<path class="st41" d="M335.3,217.86c-18.84,3.73-18.84,3.73-37.68,7.46c-2.86-0.01-5.72,0.02-8.58,0
					c0.07-0.02-0.27-1.33,0.37-1.49c2.15-0.55,15.48-1.13,16.04-2.61c0.34-0.9-2.39-9.46,0.75-19.03
					C315.98,207.19,325.56,212.98,335.3,217.86z"/>
				<path class="st42" d="M279.34,214.13c2.06,0.95,0.21,4.64,1.49,11.57c2.72-0.55,5.46-0.39,8.21-0.37
					c-17.3,4.22-36.69,6.68-54.85,8.95c-0.56,1.12-0.56,1.12-1.12,2.24c-0.76-0.3-1.53-0.48-2.24-0.75
					c-4.03-1.5-7.76-1.64-8.21-2.61c-0.23-0.5,2.54-9.2,3.73-10.07C234.19,221.54,276.92,215.31,279.34,214.13z"/>
				<path class="st43" d="M226.35,223.09c-1.19,0.87-3.96,9.57-3.73,10.07c0.45,0.98,4.18,1.11,8.21,2.61
					c-1.95,5.03-8.29,0.72-9.33,0.75c-4.54,0.12-15.28,2.96-21.27,2.98c-1.04,0-1.92-0.3-2.61,0.75
					c-6.37-12.46,4.46-12.79,13.81-14.92C215.88,224.31,221.71,224,226.35,223.09z"/>
			</g>
			<g>
				<path class="st39" d="M450.97,295.47c-0.03,1.99,0.02,3.98,0,5.97c-4.58-0.44-8.9,0.26-13.43,0.75
					c-6.61-13.64-15.26-16.21-17.54-17.91c-1.4-1.05-2.07-4.61-4.48-5.97c-2-1.13-9.05-1.25-10.07-1.87
					c-2.15-1.29-0.42-10.97-5.97-19.78c0.53-0.07,2.73-1.73,10.45-2.24c4.71,2.17,40.72,15.75,41.04,18.28
					c0.03,0.23-1.5,1.23-1.49,1.49C449.64,281.3,448.45,288.79,450.97,295.47z"/>
				<path class="st44" d="M211.43,225.33c-9.34,2.13-20.17,2.47-13.81,14.92c0.69-1.04,1.57-0.74,2.61-0.75
					c8.83,4.66,5.11,12.42,6.72,17.54c0.88,2.81,4.95,7.33,5.22,8.21c1.11,3.51-0.27,14.1,3.73,20.15
					c0.98,1.48,20.18,11.9,23.88,13.81c-21.96-10.01-171.8-67.51-179.09-73.88c-5.66-4.94-5.91-22.54-10.45-30.22
					c-1.77-17.01-11.42-37.36-11.19-53.36C125.24,183.54,125.24,183.54,211.43,225.33z"/>
				<path class="st41" d="M386.79,258.16c-1.12,1.31-1.12,1.31-2.24,2.61c7.84,35.39,15.67,22.2,17.16,24.63
					c0.82,1.33-1.55,7.54,1.49,7.09c-0.15,4.72,0.06,9.46,0,14.18c-1.89-0.21-3.36,0.61-5.22,0.75c-2.46-3.06-7.35-0.53-11.94,0
					c-8.4-7.11-5.37-8.11-6.72-10.07c-1.74-2.54-4.75-4.32-6.72-8.21c-1.57-3.11-8.58-22.78-8.21-25.37c0.08-0.57,2.6-1.6,2.24-3.36
					C373.28,259.58,380.19,259.07,386.79,258.16z"/>
				<path class="st41" d="M399.48,256.67c5.55,8.8,3.82,18.49,5.97,19.78c1.03,0.61,8.07,0.73,10.07,1.87
					c2.4,1.36,3.08,4.92,4.48,5.97c2.27,1.7,10.93,4.27,17.54,17.91c-7.9,0.85-23.4,3.75-26.86,3.73c-1.22-0.01-1.32-0.33-2.24-0.75
					c0.24-10.44-1.55-21.94,2.24-26.49c-10.11-4.72-7.14,3.35-7.46,13.81c-3.04,0.45-0.68-5.76-1.49-7.09
					c-1.5-2.43-9.32,10.76-17.16-24.63c1.12-1.31,1.12-1.31,2.24-2.61C391.04,257.57,395.28,257.24,399.48,256.67z"/>
				<path class="st43" d="M289.78,262.64c-3.73,0.56-3.73,0.56-7.46,1.12c-0.91,33.23,9.5,21.64,11.19,21.27
					c-0.89,11.65,1.86,27.69-1.49,37.31c-2.97-3.44-27.13-11.1-32.83-13.43c-0.23-0.09-1.25-2.58-4.48-2.24
					c-0.22-1.34-1.44-2.11-1.49-2.24c-1.83-4.83-8.79-12.78-11.19-18.28c-0.91-2.09-0.22-6.74-0.75-8.21
					c-1.1-3.05-3.9-4.14-5.22-8.21c-0.3-0.93,0.29-6.88-0.75-10.45c-0.32-1.1-4.41-4.87-4.48-5.22c-0.89-4.39,7.09-4.01,2.98-12.69
					c3.18-2.41,7.13,2.44,2.98-3.36C254.67,245.54,271.88,255.51,289.78,262.64z"/>
				<path class="st42" d="M289.78,262.64c18.26,7.26,15.89,4.88,36.57,2.98c3.46,0.09,0.01,2.29,0,2.61
					c-0.04,1.4,6.47,24.34,7.46,26.86c1.14,2.92,3.86,5.43,5.22,8.21c1.52,3.09,0.21,7.43,4.48,8.58
					c-6.91,0.95-39.42,5.14-42.54,7.46c-0.82-0.12-2.59,0.36-2.98-0.37c-0.69-1.28-0.41-27.71,0-29.1c0.19-0.64,4.09-0.4,2.98-4.48
					c-0.39-0.52-6.5-0.58-7.46-0.37c-1.7,0.37-12.1,11.97-11.19-21.27C286.05,263.2,286.05,263.2,289.78,262.64z"/>
				<path class="st40" d="M386.05,307.41c-14.09,1.61-28.51,2.54-42.54,4.48c-4.27-1.15-2.96-5.49-4.48-8.58
					c-1.37-2.78-4.08-5.29-5.22-8.21c-0.99-2.52-7.5-25.47-7.46-26.86c0.01-0.32,3.46-2.52,0-2.61c13.29-2.74,26.85-3.57,40.3-5.22
					c0.36,1.76-2.16,2.79-2.24,3.36c-0.37,2.59,6.63,22.26,8.21,25.37c1.97,3.89,4.98,5.67,6.72,8.21
					C380.68,299.3,377.64,300.3,386.05,307.41z"/>
				<path class="st43" d="M233.07,236.52c1.26,0.5,2.47,0.96,3.73,1.49c4.14,5.8,0.19,0.94-2.98,3.36c4.1,8.68-3.88,8.3-2.98,12.69
					c0.07,0.35,4.16,4.13,4.48,5.22c1.04,3.57,0.44,9.51,0.75,10.45c1.32,4.07,4.12,5.16,5.22,8.21c0.53,1.47-0.16,6.12,0.75,8.21
					c2.4,5.51,9.36,13.46,11.19,18.28c-1.04-1.14-1.42,0.01-1.49,0c-3.48-0.51-8.72-3.56-11.94-5.22
					c-3.7-1.91-22.9-12.32-23.88-13.81c-4-6.05-2.62-16.64-3.73-20.15c-0.28-0.88-4.34-5.4-5.22-8.21
					c-1.61-5.11,2.12-12.88-6.72-17.54c5.99-0.02,16.73-2.86,21.27-2.98c1.04-0.03,7.38,4.29,9.33-0.75
					C231.54,236.04,232.31,236.22,233.07,236.52z"/>
			</g>
			<g>
				<path class="st7" d="M72.63,615.6c-0.05-2.8-1.44-7.27-1.49-10.07c-0.31-15.41,0.72-30.74,0-46.27
					c-0.01-0.27,1.51-4.95,1.49-5.22c-0.01-0.26-2.18-0.71-2.24-1.49c-0.31-3.87,1.1-8-1.49-10.82c4.8,0.48,2.37,6.31,2.98,10.82
					c0.04,0.31,2.08,0.62,2.24,1.49c0.19,1.07-1.74,6.34-1.49,17.91c0.01,0.64,2.22,2.8,2.24,2.98c0.29,2.4-2.25,3.25-2.24,3.73
					c0.14,10.27,1.67,19.97,0,30.6C75.01,611.13,75.59,614.01,72.63,615.6z"/>
				<g>
					<path class="st2" d="M50.99,648.44c0.2,4.2-0.09,7.92,0,11.94c-4.14,0.79-2.68-2.14-3.36-2.24c-1.08-0.15-12,4.64-21.27,2.98
						c-0.03-3.91,0.28-8.12-0.75-11.94C27.58,648,46.73,648.93,50.99,648.44z"/>
					<path class="st2" d="M53.23,541.73c0.33,15.8-2.81,11.09-15.67,11.19c0.37-5.6,0.37-5.6,0.75-11.19
						C45.77,541.73,45.77,541.73,53.23,541.73z"/>
					<path class="st2" d="M35.32,541.73c2.03,2.91,1.24,7.46,1.49,11.19c-2.04-0.08-12.45,0.99-13.06,0.75
						c-2.21-0.89-0.6-7.97-1.12-11.94C28.98,541.73,28.98,541.73,35.32,541.73z"/>
					<path class="st2" d="M52.48,722.31c-0.01,2.68,0.28,13.16,0,13.81c-1.14,2.57-4.25,0.35-4.48,0.37
						C48.32,729.52,45.08,716.69,52.48,722.31z"/>
					<path class="st2" d="M50.99,666.35c0.09,4.79-0.07,9.48,0,14.18c-0.97-0.1-2.05,0.15-2.98,0c0-7.09,0-7.09,0-14.18
						C49,666.37,50,666.33,50.99,666.35z"/>
					<path class="st10" d="M50.99,685.75c0.03,4.03-0.01,7.94,0,11.94c-4.75,0.85-2.51-5.93-2.98-11.94
						C48.48,685.79,48.56,684.83,50.99,685.75z"/>
					<g>
						<path class="st2" d="M37.56,742.46c0.56,10.45,0.56,10.45,1.12,20.89c0.19-10.45,0.19-10.45,0.37-20.89
							c3.34-0.06,5.44-0.58,8.95,0c-0.3,10.97-2.18,13.59,4.48,13.43c0,4.1,0,4.1,0,8.21c-8.95-0.04-17.91,0.12-26.86,0
							c0-10.82,0-10.82,0-21.64C27.34,741.86,34.95,742.57,37.56,742.46z"/>
						<path class="st2" d="M52.48,755.89c-6.66,0.15-4.78-2.46-4.48-13.43c0.8,0.13,3.89-1.12,4.48,0.37
							C52.48,749.36,52.48,749.36,52.48,755.89z"/>
						<path class="st10" d="M39.05,742.46c-0.19,10.45-0.19,10.45-0.37,20.89c-0.56-10.45-0.56-10.45-1.12-20.89
							C38.05,742.44,38.55,742.47,39.05,742.46z"/>
					</g>
					<path class="st10" d="M38.3,541.73c-0.37,5.6-0.37,5.6-0.75,11.19c-0.36,0-0.29,0.02-0.75,0c-0.25-3.73,0.54-8.28-1.49-11.19
						C36.81,541.73,36.81,541.73,38.3,541.73z"/>
					<path class="st2" d="M25.62,680.52c1.32-4.54,0.75-10.14,0.75-14.92c5.97,0.19,5.97,0.19,11.94,0.37
						C35.29,678.9,43.83,683.61,25.62,680.52z"/>
					<path class="st2" d="M37.56,696.94c-0.78,0.66-9.26,0.27-10.45,0c-0.27-0.06-0.58,0.08-0.75,0c0-5.6,0-5.6,0-11.19
						C38.89,683.8,37.28,684.45,37.56,696.94z"/>
					<path class="st2" d="M48,666.35c0,7.09,0,7.09,0,14.18c-4.14-0.68-8.4,0.22-8.95-2.61c-0.24-1.23,1.79-6.87,0-12.69
						C39.27,664.83,43.7,666.25,48,666.35z"/>
					<path class="st10" d="M26.36,685.75c0,5.6,0,5.6,0,11.19C22.95,698.66,22.95,684.03,26.36,685.75z"/>
					<g>
						<path class="st2" d="M48,685.75c0.48,6.01-1.77,12.79,2.98,11.94c0,1.5,0,2.99,0,4.48c-4.56-2.88-4.73,18.17,0.75,13.43
							c0.01,1.82,0.75,4.84,0.75,6.72c-7.4-5.62-4.16,7.21-4.48,14.18c-2.92,0.37-5.98,1.8-8.95,0c0.9-22.9-2.43-17.37-0.75,0.75
							c-6.34-0.37-6.34-0.37-12.69-0.75c0-7.84,0-7.84,0-15.67c4.06-3.26,12.02-1.93,0-4.48c0-6.72,0-6.72,0-13.43
							c0.76-2.52,2.61-0.87,1.49-5.97c1.19,0.27,9.66,0.66,10.45,0c3.34-2.8,0.46-10.11,1.49-11.57
							C39.99,684.05,46.3,685.61,48,685.75z"/>
						<g>
							<path class="st10" d="M50.99,702.17c0.01,4.31,0.71,8.98,0.75,13.43C46.26,720.34,46.43,699.28,50.99,702.17z"/>
							<path class="st28" d="M25.62,720.82c0,7.84,0,7.84,0,15.67c-2.9,2.37-2.16-3.37-2.24-6.72c-0.02-0.74-0.04-1.5,0-2.24
								C23.57,724.25,22.37,720.7,25.62,720.82z"/>
							<path class="st10" d="M39.05,736.49c-0.37,0.37-0.37,0.37-0.75,0.75C36.62,719.12,39.95,713.59,39.05,736.49z"/>
							<path class="st28" d="M25.62,702.91c0,6.72,0,6.72,0,13.43c-2.15-0.03-1.8-12.03-1.49-13.06
								C24.32,702.64,25.6,702.99,25.62,702.91z"/>
							<path class="st10" d="M35.69,702.17c5.98-1.67,4.13,4.08,3.73,14.18C36.1,712.03,41.22,704.37,35.69,702.17z"/>
						</g>
					</g>
				</g>
			</g>
			<g>
				<g>
					<path class="st25" d="M255.46,749.92c0.31,7.84-1.71,10.7,3.73,9.7c-0.01,1.49,0.01,2.98,0,4.48c-2.49,0-4.97,0-7.46,0
						c0.13-1.72-0.18-3.52,0-5.22c0.15-1.44,0.7-2.78,0.75-4.48c0.08-3.35-0.06-6.72,0-10.07c-1.05-1.7-2.36-0.88-3.73-1.12
						c4.58-5.45,4.94,3.75,4.48,7.84C254.34,750.48,254.34,750.48,255.46,749.92z"/>
					<path class="st44" d="M274.86,528.29c-4.05,4.09-12.09-1.79-17.16,0.75c-1.12,0.19-1.12,0.19-2.24,0.37
						c2.07,70.59-2.76,151.25,0,220.51c-1.12,0.56-1.12,0.56-2.24,1.12c0.46-4.09,0.1-13.28-4.48-7.84c-1.06-0.19-2.52,0.07-3.73,0
						c-3.71-4.15-21.3,1.15-26.12-2.98c4.16,0,32.74,0.78,33.58-1.12c-3.14-32.82,2.53-199.17-0.75-211.56
						c-0.71-2.68-3.45-0.74-1.49-3.73C258.4,525.42,266.66,526.81,274.86,528.29z"/>
					<path class="st26" d="M257.7,529.04c1.12-0.36,1.43,0.63,2.24,0.75c-1.47,70.09,1.64,140.37,0.75,210.44
						c0,0.15-0.68-0.85-0.75,2.98c-0.07,3.72,0.19,7.49,0,11.19c-0.08,1.56-0.74,3.37-0.75,5.22c-5.44,1-3.42-1.86-3.73-9.7
						c-2.76-69.27,2.07-149.92,0-220.51C256.58,529.23,256.58,529.23,257.7,529.04z"/>
				</g>
				<g>
					<path class="st11" d="M253.22,304.43c0.05,0.13,1.27,0.9,1.49,2.24c1.4,8.45-0.04,58.74,0,72.38
						c-0.48-0.34-2.32,0.37-2.98-2.24c-2.08-8.16,2.5-58.07,0-72.38C251.8,304.44,252.17,303.28,253.22,304.43z"/>
					<path class="st27" d="M259.19,308.9c0,36.19,0,36.19,0,72.38c-1.81-0.71-2.83-1.09-4.48-2.24c-0.04-13.65,1.4-63.93,0-72.38
						C257.93,306.33,258.96,308.81,259.19,308.9z"/>
				</g>
				<path class="st36" d="M259.19,402.18c0,53.36,0,53.36,0,106.71c-1.26-0.28-2.52-0.47-3.73-0.75c0-53.92,0-53.92,0-107.83
					C259.36,399.3,258.95,402.12,259.19,402.18z"/>
			</g>
		</g>
	</g>
</g>
</svg>
