<?xml version="1.0" encoding="utf-8"?>
<!-- Generator: Adobe Illustrator 28.3.0, SVG Export Plug-In . SVG Version: 6.00 Build 0)  -->
<svg version="1.1" id="Layer_1" xmlns="http://www.w3.org/2000/svg" xmlns:xlink="http://www.w3.org/1999/xlink" x="0px" y="0px"
	 viewBox="0 0 900 210" style="enable-background:new 0 0 900 210;" xml:space="preserve">
<style type="text/css">
	.st0{fill:#EADBBE;}
	.st1{fill:#C0DBE2;}
	.st2{fill:#653F4C;}
	.st3{fill:url(#SVGID_1_);}
	.st4{fill:#3C2734;}
	.st5{fill:#181E29;}
	.st6{fill:#20181A;}
	.st7{fill:#003144;}
	.st8{fill:#141819;}
	.st9{fill:#014256;}
	.st10{fill:#2E303E;}
	.st11{fill:#2B3319;}
	.st12{fill:#F09E42;}
	.st13{fill:#9CB7CC;}
	.st14{fill:#7599B8;}
	.st15{fill:#24384C;}
	.st16{fill:#DEA348;}
	.st17{fill:#D17993;}
	.st18{fill:#C78B40;}
	.st19{fill:#7C4855;}
	.st20{fill:#966449;}
	.st21{fill:url(#SVGID_00000052062974621663898170000007412184827555514536_);}
	.st22{fill:#2E3F22;}
	.st23{fill:url(#SVGID_00000046318006949139592260000014302206744460244669_);}
	.st24{fill:#62753B;}
	.st25{fill:#314C38;}
	.st26{fill:#8D8733;}
	.st27{fill:#AE5E7B;}
	.st28{fill:#4B7194;}
	.st29{fill:#A99036;}
	.st30{fill:#2C2534;}
	.st31{fill:#746B48;}
	.st32{fill:#455C3B;}
	.st33{fill:#075470;}
	.st34{fill:#055566;}
	.st35{fill:#30527C;}
	.st36{fill:#393338;}
	.st37{fill:#8C462E;}
	.st38{fill:#431A18;}
	.st39{fill:#05263C;}
	.st40{fill:#D76B27;}
	.st41{fill:#2B1F1A;}
	.st42{fill:#D9D5C5;}
	.st43{fill:#82351A;}
	.st44{fill:#74302C;}
	.st45{fill:#0B3B5C;}
	.st46{fill:#431025;}
	.st47{fill:#F6F6F9;}
	.st48{fill:#131217;}
	.st49{fill:#EED6C2;}
	.st50{fill:#017C8C;}
	.st51{fill:#72A5BF;}
	.st52{fill:#EDE4DD;}
	.st53{fill:#612F13;}
	.st54{fill:#B8D1E1;}
	.st55{fill:#0B1A22;}
	.st56{fill:#445863;}
	.st57{fill:#EAAC8C;}
	.st58{fill:#E9C3AA;}
	.st59{fill:url(#SVGID_00000158026336099534820650000009406193751263772034_);}
	.st60{fill:url(#SVGID_00000177451038646469286230000011554431744897181064_);}
	.st61{fill:url(#SVGID_00000081610193694266314960000004335113351181658506_);}
	.st62{fill:#E2926B;}
</style>
<g>
	<g id="Background_00000177469792631655614900000014705923483581223822_">
		<rect x="0.3" y="-561" class="st0" width="895.7" height="896.43"/>
		<path class="st0" d="M818.11-560.56c-8.84,7.13-17.51,19.01-17.49,30.62c-50.18-55.75-134.42-9.11-115.45,65.19
			c-58.7,31.38-98.51,105.01-22.74,142.62c-23.03,4.5-26.85,16.39-28.42,17.06c-2.04,0.87-25.72-3.28-38.04,17.94
			c-7.41,12.75-0.36,25.78-10.49,35c-4.39,4-19,2.86-31.49,20.12c-19.16,26.48-9.54,62.86,26.24,64.75
			c-44.26,49.43,4.19,97.71,44.6,87.06c3.85,13.45,12.54,5.17,14.87,18.37c-20.76,10.57-21.93,57.26-23.61,77.44
			c-0.34,4.04-3.32-0.97,0,8.31c-10.5,0.87-10.5,0.87-20.99,1.75c3.84-22.77,8.84-81.41-12.68-96.25
			c-3.14-0.99-17.81-7.64-18.8-7.87c0.44-2.52,0.49-8.3,0.87-9.62c0.26-0.89,8.31-11.44,2.19-16.62
			c-17.2-0.28-19.42-2.12-17.05,15.75c0.17,1.3-1.1,2.74,2.62,9.62c-0.11,0.01-0.61,1.67-1.31,1.75
			c-20.69,2.42-26.58,5.11-35.42,24.94c-12,26.92-13.57,52.98-10.49,81.81c-11.37,1.75-11.37,1.75-22.74,3.5
			c-0.53-14.41-5.3-63.37-16.18-71.75c-2.53-1.95-13.02-5.85-17.05-6.12c0.36-2.31-0.74-4.83,0.87-7c12.44,0.88,6.17-15.54-3.06-14
			c-8.74,7.65-5.61,13.87-5.68,16.62c-0.01,0.51,0.16,1.36,0,4.37c-9.36,1.2-17.61,5.45-21.86,14.44
			c-2.61,5.5-11.19,38.79-6.12,44.19c-0.27,0.48-1.88,7.26-5.25,9.62c-0.99-10.92-3.36-22.09-3.5-24.06
			c-1.4-19.49,8.85-30.61-14.87-42.44c21.95-3.35,6.97-6.76,11.37-28c0.29-1.42,0.4-2.95,0.87-4.37
			c14.76-9.2-6.43-17.27-14.43-18.37c-12.54,12.66-23.48,13.7-18.8,38.06c0.53,2.77,5.39,3.53,3.5,8.31
			c-0.77,0.12-0.93,0.65-1.75,0.87c-18.86,5.17-28.51,31.01-32.36,48.56c-2.14,9.76-1.59,20.37-1.75,21.44
			c-0.04,0.29,0.04,0.59,0,0.87c-10.79-0.01-21.57,0.01-32.36,0c-10.44-0.01-21.12,0.73-31.49-0.87c2.66-15.47-0.84-21.23-6.12-35
			c19.1-2.34,38.25-9.99,52.91-22.75c47.58-41.41,59.69-158.66-14.43-148.75c-6.4,0.86-12.32,5.08-18.37,7
			c16.99-36.67-2.15-80.45-45.48-80.5c-10.18-0.01-19.69,2.85-28.86,7c28.4-39.02,17.84-91.13-24.49-114.62
			c13.37-26.07,24.81-53.49,41.98-77.44c9.77-13.61,30.96-36.8,43.29-48.56c34.08-32.51,67.25-52.03,110.63-70
			C528.32-560.62,673.23-561.11,818.11-560.56z"/>
		<path class="st1" d="M383.44-560.56c-43.39,17.97-76.55,37.49-110.63,70c-12.33,11.76-33.53,34.95-43.29,48.56
			c-17.17,23.94-28.61,51.37-41.98,77.44c-15.03-8.34-27.39-10.4-44.6-9.62c-29.99-2.69-60.87,17.63-68.22,47.25
			c-13.44,5.13-40.46,24.82-44.6,38.5c-3.56,1.43-3.29,2.55-3.5,2.62c-2.62,0.98-3.47,1-6.12,0.87
			c14.29-39.05,11.16-87.15-20.12-117.25c0.07-52.79-0.05-105.58,0-158.37C128.06-560.6,255.75-560.5,383.44-560.56z"/>
		<path class="st2" d="M891.57-560.56c-1.87,125.41-0.52,250.83-0.87,376.24c-40.75,4.07-79.29,17.08-117.63,30.62
			c-2.8,0.99-4.58-0.08-4.81,0c4.23-45.47,2.8-112.64,22.74-152.68c8.06-16.19,21.23-26.93,21.86-34.56
			c5.33,3.08,13.43-7.69,20.55-8.75c0.22-3.28,0.22-3.28,0.44-6.56c-43.31-0.36-74.89-26.09-69.97-71.75
			c3.51-32.52,30.51-41.97,31.49-44.62c0.44-1.21-3.07-11.5,1.75-25.37c1.23-3.55,6.86-10.72,7-11.37
			c1.21-5.92-3.49-13.36-3.5-20.56c-0.02-11.61,8.65-23.5,17.49-30.62C835.15-560.49,883.47-561.59,891.57-560.56z"/>
		<path class="st2" d="M20.48-284.94c2.65,0.12,3.5,0.11,6.12-0.87c56.28,16.68,48.74,69.45,55.1,80.06
			c2.42,4.03,28.06,10.75,34.55,13.56c14.51,6.29,38.77,20.45,41.54,37.62c0.09,0.56-2.27,10.07-0.44,11.37
			c1.44,1.02,29.95-0.8,35.42,0c22.15,3.23,40.43,25.44,34.55,48.12c45.65-16.83,91.75,40.33,54.22,70
			c-14.4,11.39-24.35,5.22-17.05,10.5c2.21,1.6,3.23,0.35,1.75,2.62c5.28,13.77,8.78,19.53,6.12,35c-1.19,6.92-2.84,10.09-7,15.75
			c-2.25-5.08-1.35-14.5-2.62-20.56c-1.46-6.94-10.89-31.51-14.87-36.75c-11.69-15.38-29.32-7.59-33.67-8.31
			c-3.69-0.61-22.99-18.98-72.15-12.69c-0.33-26.5,0.7-98.8-33.67-106.31c-9.23-2.02-43.7,0.95-46.35,0
			c-2.01-0.72-6-11.82-7.87-13.12c-1.85-1.29-39.31,5.74-44.17,8.75c-2.38-9.08-5.34-18.69-9.62-27.12
			c0.03-71.46-0.1-142.91,0-214.37c24.46,23.43,26.48,73.56,15.74,104.56C17.88-282.24,19.85-284.97,20.48-284.94z"/>
		
			<linearGradient id="SVGID_1_" gradientUnits="userSpaceOnUse" x1="-1402.4734" y1="193.41" x2="-1145.3258" y2="328.8141" gradientTransform="matrix(0.4996 0 0 0.4996 692.3397 48.6015)">
			<stop  offset="0" style="stop-color:#063B3D"/>
			<stop  offset="1" style="stop-color:#36563B"/>
		</linearGradient>
		<path class="st3" d="M140.3,113.18c0,45.5,0,45.5,0,91c-28.55,14.23-57.39,28.22-85.71,42.87c0.05-3.51-7.73-2.49-12.24-4.81
			c12.88-21.73-1.87-6.15-9.62,0.44c-10.5,8.92-29.76,29.12-32.36,14c-0.17-48.71,0.04-97.42,0-146.12
			C46.99,111.49,93.67,112.82,140.3,113.18z"/>
		<path class="st4" d="M9.99-150.19c4.57,17.4,7.49,35.54,12.24,52.94c9.47,34.64,22.11,62.67,24.49,99.75
			c1.13,17.66-3.83,55.13-1.31,56.44c3.66,1.9,69.2,2.78,82.21,6.12c4.09,1.05,1.08,3.91,6.12,4.37
			c6.47,0.6,90.93-13.71,97.08-12.25c0.65,0.15,0.45,1.16,0.44,1.75c-48.6,2.86-122.02,15.5-172.29,22.75
			c-19.39,2.79-39.13,4.69-58.6,7c-0.07-88.66-0.04-177.33,0-265.99C4.65-168.88,7.61-159.27,9.99-150.19z"/>
		<path class="st5" d="M315.22,123.68c-5.77,5.05-12.8,9.83-19.24,14c-10.97,7.09-23.5,12.93-34.98,19.25
			c-10.91,6.01-22.18,11.74-33.23,17.5c-14.02,7.3-28.02,14.42-41.98,21.87c-2.59,1.38-5.66,2.33-7.87,4.37
			c-0.29,0.03-0.59-0.03-0.87,0c-0.11,0.01,0.61-2.06-1.31-1.75c-1.62,0.27-25.46,11.98-29.74,14
			C96.65,236.2,48.81,263.1,0.37,288.17c-0.03-4.08,0.02-8.17,0-12.25c13.59-6.07,26.25-14.02,39.36-21
			c4.94-2.63,9.9-5.3,14.87-7.87c28.32-14.65,57.16-28.64,85.71-42.87c29.01-14.46,58.29-28.31,87.46-42.44
			c-0.34-1.36,1.63-2.08,1.75-2.62c0.47-2.25-2.14-37.91-0.87-45.94c1.46,0.01,2.92-0.01,4.37,0c0.22,23.19,0.22,23.19,0.44,46.37
			c26.61-11.53,51.03-26.1,75.65-41.12C330.13,105.6,334.3,106.96,315.22,123.68z"/>
		<path class="st6" d="M891.57-560.56c1.42,0.18,2.94-0.12,4.37,0c-0.05,163.04,0.06,326.08,0,489.11
			c-6.23-0.79-1.36-8.22-5.25-7.87c0.28-33.53-0.09-67.09,0-100.62c0-1.46,0-2.92,0-4.37C891.05-309.73,889.71-435.15,891.57-560.56
			z"/>
		<path class="st7" d="M293.36,52.8c0,30.19,0,30.19,0,60.37c-9.14-1.04-44.42,0.15-60.35,0c-1.46-0.01-2.92,0.01-4.37,0
			c-29.44-0.25-58.89,0.23-88.33,0c-46.63-0.36-93.31-1.69-139.93-2.62c0-2.04,0-4.08,0-6.12c19.82,0.26,39.66-0.35,59.47,0
			c63.97,1.12,128.02,5.15,191.97,6.12c13.06,0.2,29.14-1.81,37.17-0.87c0.17,0.02-0.82,2.22,2.62,2.19
			c0.99-12.57-1.33-53.04,0-58.62C291.76,52.59,292.77,52.8,293.36,52.8z"/>
		<path class="st8" d="M895.94-71.44c-0.03,88.37,0.14,176.75,0,265.12c-3.57-1.12-2.45-2.56-2.62-2.62c2.53-5.5,1.4-4.98-3.5-7
			c0.39-6.6-2.45-5.34-4.37-9.62c0.77,0.23,5.88,1.78,6.12,1.31c0.84-22.89-0.73-45.83-0.87-68.69c-0.04-6.01-0.87-6.65-0.87-7
			c-0.17-15.12,0.14-35.67,0.87-50.75c0.22-4.58,0.88-3.59,1.75-6.56c-4.98,1.69-3.2-2.02-3.5-2.19
			c0.94-11.33-0.87-22.86-0.87-34.12c0-2.83,1.79-6.53,0.87-9.62c1.01-4.98-0.04-4.98,0-5.25c0.02-0.11,1.67-0.62,1.75-1.31
			c1.08-8.98-0.15-52.18,0-69.56C894.59-79.67,889.72-72.23,895.94-71.44z"/>
		<path class="st4" d="M177.04,200.67c-21.35,11.54-42.63,23.2-63.84,35C95.01,245.79,77,255.93,58.97,266.3
			c-3.27,1.88-6.37,4.25-9.62,6.12c-16.14,9.32-32.74,17.97-48.98,27.12c-0.03-3.79,0.03-7.58,0-11.37
			c48.44-25.07,96.28-51.97,145.62-75.25c4.27-2.02,28.11-13.73,29.74-14C177.64,198.61,176.93,200.69,177.04,200.67z"/>
		<path class="st9" d="M58.97,81.68c0.44,11.37,0.44,11.37,0.87,22.75c-19.81-0.35-39.66,0.26-59.47,0c0-5.25,0-10.5,0-15.75
			C19.83,86.37,39.58,84.47,58.97,81.68z"/>
		<path class="st10" d="M20.48-284.94c-0.63-0.03-2.6,2.7-4.37-2.19c10.74-31,8.72-81.13-15.74-104.56c0.01-3.5,0-7,0-10.5
			C31.65-372.08,34.77-323.98,20.48-284.94z"/>
		<path class="st11" d="M39.73,254.92c-13.11,6.98-25.76,14.93-39.36,21c-0.03-6.42,0.02-12.83,0-19.25
			c2.6,15.12,21.86-5.08,32.36-14C36.52,243.13,37.91,251.25,39.73,254.92z"/>
		<path class="st12" d="M800.61-529.93c0.01,7.2,4.71,14.64,3.5,20.56c-0.13,0.65-5.76,7.83-7,11.37
			c-4.82,13.87-1.3,24.17-1.75,25.37c-0.98,2.66-27.98,12.11-31.49,44.62c-4.93,45.66,26.65,71.39,69.97,71.75
			c-0.22,3.28-0.22,3.28-0.44,6.56c-7.13,1.06-15.22,11.83-20.55,8.75c-3.29-1.9-15.92-16.64-38.92-20.12
			C689-373.93,654.86-262.29,730.65-232c-4.74,7.13-4.84,19.1-5.68,19.69c-1.53,1.07-15.28-2.62-35.86,8.75
			c-31.03,17.15-42.45,59.62-28.42,80.5c-5.67,7.52-15.53,18.15-16.62,27.12c-2.09,1.48-2.42,4.22-2.62,4.37
			c-4.45,3.45-10.86,9.86-16.62,11.37c-40.41,10.65-88.86-37.63-44.6-87.06c-35.78-1.89-45.39-38.27-26.24-64.75
			c12.49-17.26,27.09-16.13,31.49-20.12c10.14-9.22,3.09-22.25,10.49-35c12.33-21.21,36-17.07,38.04-17.94
			c1.57-0.67,5.39-12.57,28.42-17.06c-75.77-37.61-35.96-111.24,22.74-142.62C666.2-539.05,750.44-585.68,800.61-529.93z"/>
		<path class="st13" d="M336.21,23.93c-0.74,5.12-6.36,11.86-3.06,18.37c1.29-6.58,5.09-12.63,7.87-18.37
			c-0.81,7.32-15.38,50.87-14.43,53.81c1.06,3.3,9.4-1.68,7,18.37c21.94,10.84,24.05,22.71,27.99,2.19c0.93,8.22,0.4,17.14,0,25.37
			c-0.01,0.29,0.02,0.58,0,0.87c-23.18-0.44-23.18-0.44-46.35-0.87c19.08-16.71,14.91-18.08-6.12-5.25
			c-0.85-1.55-3.93-1.39-5.25-1.75c0-46.37,0-46.37,0-92.75C314.64,23.94,325.42,23.92,336.21,23.93z"/>
		<path class="st14" d="M303.85,23.93c0,46.37,0,46.37,0,92.75c-1.97-0.54-9.95-3.44-10.5-3.5c0-30.19,0-30.19,0-60.37
			c-0.93-2.49-34.71-2.3-40.23-1.75c4-4.17,8.78-7.53,12.24-12.25c4.16-5.66,5.81-8.83,7-15.75
			C282.73,24.66,293.41,23.92,303.85,23.93z"/>
		<path class="st15" d="M266.24-11.95c1.48-2.28,0.46-1.02-1.75-2.62c53.56-8.99,84.62-56.23,86.58-108.5
			c1.32-35.22-9.24-56.02-46.35-60.37c74.12-9.92,62.01,107.33,14.43,148.75C304.49-21.93,285.34-14.28,266.24-11.95z"/>
		<path class="st16" d="M351.08-123.07c-5.4-7.3-8.97-16.25-14.87-23.19c-7.25-8.52-23.65-20.03-34.55-22.31
			c-5.16-1.08-17.59,0.09-19.68-1.75c0.82-1.96,3.79-4.87,4.37-6.12c6.05-1.92,11.97-6.14,18.37-7
			C341.83-179.09,352.4-158.29,351.08-123.07z"/>
		<path class="st16" d="M240.88-256.94c5.49,3.38,14.54,4.75,21.43,8.75c24.13,14.03,25.09,37.63,22.3,62.12
			c-3.24-17.72-11.58-34.91-25.8-46.37c-15.31-12.34-30.99-15.99-50.29-13.12c0.58-0.48,2.81-3.43,3.5-4.37
			C221.19-254.09,230.7-256.95,240.88-256.94z"/>
		<path class="st15" d="M187.53-364.56c42.33,23.49,52.89,75.6,24.49,114.62c-0.69,0.95-2.92,3.9-3.5,4.37
			c-4.72,3.89-1.71,0.08,0.87-6.12c11.32-27.22,18.92-54.58,2.62-81.81c-13.25-22.15-43.9-38.43-69.09-40.69
			C160.14-374.96,172.5-372.9,187.53-364.56z"/>
		<path class="st15" d="M286.36-176.44c-0.58,1.25-3.55,4.16-4.37,6.12c-0.6-0.53,2.36-13.4,2.62-15.75
			c2.79-24.49,1.82-48.1-22.3-62.12c-6.89-4-15.94-5.37-21.43-8.75C284.21-256.89,303.35-213.11,286.36-176.44z"/>
		<path class="st17" d="M639.69-61.82c-2.33-13.2-11.02-4.92-14.87-18.37c5.76-1.52,12.16-7.93,16.62-11.37
			c3.8,14.37,2.13,15.07,13.12,24.94C650.59-64.05,640.39-62.17,639.69-61.82z"/>
		<path class="st18" d="M209.4-251.69c-2.58,6.21-5.6,10.01-0.87,6.12c19.3-2.86,34.97,0.78,50.29,13.12
			c14.22,11.47,22.56,28.65,25.8,46.37c-0.27,2.35-3.22,15.22-2.62,15.75c2.09,1.84,14.52,0.67,19.68,1.75
			c10.9,2.28,27.3,13.79,34.55,22.31c5.9,6.94,9.47,15.89,14.87,23.19c-1.96,52.27-33.02,99.5-86.58,108.5
			c-7.29-5.28,2.65,0.89,17.05-10.5c37.53-29.67-8.58-86.83-54.22-70c5.89-22.69-12.4-44.9-34.55-48.12
			c1.9-16.45,2.03-33.72-5.25-49c6.77-18.51,2.2-34.16-13.56-46.37c-23.11-17.92-47.44-10.33-49.85-11.37
			c-2.24-0.97-0.65-24.56-26.24-39.37c-25.06-14.51-43.64-8.82-67.78,0.87c4.14-13.68,31.16-33.37,44.6-38.5
			c39.9-15.22,96.08,2.86,120.69,38.06C204.31-276.14,205.38-266.04,209.4-251.69z"/>
		<path class="st2" d="M187.53-192.19c-4.11,11.24-18.72,31.29-29.74,37.62c-2.77-17.17-27.04-31.34-41.54-37.62
			c-6.48-2.81-32.13-9.53-34.55-13.56c-6.36-10.61,1.18-63.38-55.1-80.06c0.2-0.08-0.06-1.2,3.5-2.62
			c24.14-9.7,42.73-15.38,67.78-0.87c25.59,14.82,24,38.41,26.24,39.37c2.41,1.04,26.75-6.54,49.85,11.37
			C189.73-226.35,194.3-210.7,187.53-192.19z"/>
		<path class="st16" d="M142.93-374.19c25.19,2.26,55.84,18.54,69.09,40.69c16.3,27.23,8.69,54.6-2.62,81.81
			c-4.02-14.35-5.09-24.45-13.99-37.19c-24.61-35.21-80.79-53.28-120.69-38.06C82.05-356.56,112.94-376.88,142.93-374.19z"/>
		<path class="st19" d="M812.86-340.94c-0.63,7.63-13.81,18.38-21.86,34.56c-19.94,40.05-18.51,107.22-22.74,152.68
			c-26.41,9.54-60.1,21.09-74.34,47.25c-9.21-0.1-28.37-9.39-33.23-16.62c-14.03-20.88-2.6-63.35,28.42-80.5
			c20.58-11.37,34.32-7.68,35.86-8.75c0.84-0.58,0.95-12.56,5.68-19.69c-75.79-30.28-41.65-141.93,43.29-129.06
			C796.94-357.58,809.57-342.84,812.86-340.94z"/>
		<path class="st2" d="M890.7-184.32c0,1.46,0,2.92,0,4.37c-0.61,0-1.52-0.23-1.75,0.44c-1.12,3.22,0.85,56.92,0,68.25
			c-25.59,3.65-65.03,12.37-80.46,34.12c-10.14,14.29-15.44,38.4-16.62,40.25c-1.59,2.5-7.04,3.55-8.75,4.81
			c-1.68,1.24-2.25,0.6-2.62,1.75c-21.35-8.26-19-2.46-28.42,0c-5.63,1.47-11.42,1.39-17.05,2.62c-0.4-1.17-0.76-0.77-0.87-0.87
			c-0.8-0.72-12.28-3.13-20.12-7.87c-1.95-1.18-4.32-2.95-6.12-4.37c-1.08-0.85-10.71-10.38-11.37-11.37
			c-10.03-15.17-11.31-38.29-2.62-54.25c14.24-26.16,47.93-37.71,74.34-47.25c0.23-0.08,2.01,0.99,4.81,0
			C811.41-167.24,849.95-180.25,890.7-184.32z"/>
		<path class="st4" d="M265.37,38.8c-3.47,4.72-8.24,8.08-12.24,12.25c-6.75,0.67-19.7,3.53-19.24,7.87c-0.87,0.05-1.75-0.05-2.62,0
			c0.01-0.59,0.21-1.6-0.44-1.75c-6.15-1.46-90.61,12.85-97.08,12.25c-5.05-0.47-2.03-3.33-6.12-4.37
			c-13.01-3.34-78.55-4.23-82.21-6.12c-2.52-1.3,2.44-38.78,1.31-56.44c-2.38-37.08-15.02-65.11-24.49-99.75
			c-4.76-17.4-7.67-35.53-12.24-52.94c4.86-3.01,42.31-10.04,44.17-8.75c1.87,1.31,5.86,12.41,7.87,13.12
			c2.65,0.95,37.12-2.02,46.35,0c34.37,7.51,33.34,79.81,33.67,106.31c49.16-6.29,68.46,12.07,72.15,12.69
			c4.35,0.72,21.98-7.07,33.67,8.31c3.98,5.24,13.41,29.81,14.87,36.75C264.02,24.31,263.12,33.73,265.37,38.8z"/>
		<path class="st20" d="M192.78-143.19c-5.47-0.8-33.98,1.02-35.42,0c-1.83-1.3,0.53-10.81,0.44-11.37
			c11.02-6.34,25.62-26.39,29.74-37.62C194.81-176.91,194.68-159.64,192.78-143.19z"/>
		
			<linearGradient id="SVGID_00000121266382358243472170000004199189695464332729_" gradientUnits="userSpaceOnUse" x1="-1103.1531" y1="200.4669" x2="-951.2859" y2="235.264" gradientTransform="matrix(0.4996 0 0 0.4996 692.3397 48.6015)">
			<stop  offset="0" style="stop-color:#34543D"/>
			<stop  offset="1" style="stop-color:#516839"/>
		</linearGradient>
		<path style="fill:url(#SVGID_00000121266382358243472170000004199189695464332729_);" d="M228.64,113.18
			c-1.26,8.03,1.35,43.69,0.87,45.94c-0.11,0.54-2.09,1.27-1.75,2.62c-29.17,14.13-58.44,27.98-87.46,42.44c0-45.5,0-45.5,0-91
			C169.74,113.41,199.2,112.93,228.64,113.18z"/>
		<path class="st22" d="M54.59,247.05c-4.97,2.57-9.93,5.24-14.87,7.87c-1.81-3.67-3.2-11.79-7-12.25
			c7.75-6.59,22.5-22.17,9.62-0.44C46.86,244.56,54.64,243.54,54.59,247.05z"/>
		
			<linearGradient id="SVGID_00000100378531330539090740000006569993473966018992_" gradientUnits="userSpaceOnUse" x1="-1252.313" y1="70.8056" x2="-825.1895" y2="71.5019" gradientTransform="matrix(0.4996 0 0 0.4996 692.3397 48.6015)">
			<stop  offset="0" style="stop-color:#024A5F"/>
			<stop  offset="1" style="stop-color:#13567B"/>
		</linearGradient>
		<path style="fill:url(#SVGID_00000100378531330539090740000006569993473966018992_);" d="M288.98,109.68
			c-8.03-0.93-24.11,1.07-37.17,0.87c-63.95-0.98-128-5-191.97-6.12c-0.44-11.37-0.44-11.37-0.87-22.75
			c50.28-7.25,123.69-19.89,172.29-22.75c0.87-0.05,1.75,0.05,2.62,0c17.87-0.95,35.89-0.8,53.79-0.87
			C288.33,83.87,288.33,83.87,288.98,109.68z"/>
		<path class="st24" d="M293.36,113.18c0.55,0.06,8.52,2.96,10.5,3.5c1.32,0.36,4.39,0.2,5.25,1.75
			c-24.62,15.02-49.04,29.6-75.65,41.12c-0.22-23.19-0.22-23.19-0.44-46.37C248.93,113.33,284.21,112.14,293.36,113.18z"/>
		<path class="st2" d="M890.7-179.94c-0.09,33.54,0.28,67.09,0,100.62c-0.15,17.38,1.08,60.59,0,69.56c-0.08,0.7-1.73,1.2-1.75,1.31
			c-6.18,2.2-17.02,7.19-22.74,7.87c-2.07,0.25-4.79,0.01-7,0c-8.19-0.03-21.14-2.48-28.86-5.25c-1.87-0.67-4.63-1.45-5.25-1.75
			c-16.25-7.91-28.06-29.45-30.17-29.75c-0.45-0.06-5.5,4.68-7.43,5.25c-0.99,0.29-2.98-0.19-4.37,0c1.71-1.26,7.15-2.31,8.75-4.81
			c1.17-1.85,6.48-25.96,16.62-40.25c15.44-21.75,54.87-30.48,80.46-34.12c0.85-11.33-1.12-65.03,0-68.25
			C889.18-180.17,890.09-179.94,890.7-179.94z"/>
		<path class="st7" d="M253.12,51.05c5.52-0.55,39.3-0.74,40.23,1.75c-0.59-0.01-1.59-0.21-1.75,0.44c-1.33,5.58,0.99,46.05,0,58.62
			c-3.44,0.03-2.45-2.17-2.62-2.19c-0.66-25.81-0.66-25.81-1.31-51.62c-17.89,0.07-35.92-0.07-53.79,0.87
			C233.43,54.58,246.38,51.72,253.12,51.05z"/>
		<path class="st5" d="M717.53,112.3c0.14,0-0.72,0.97,2.62,0.87c-0.44,0.66-0.44,0.66-0.87,1.31c1.41,3.25,51.75,18.78,59.47,21.44
			c15.78,5.43,31.47,11.12,47.23,16.62c0.99,0.34,2.51,0.53,3.5,0.87c10.18,3.56,20.46,6.92,30.61,10.5
			c0.18,0.07-0.26,0.43,3.5,1.75c7.23,2.54,14.68,6.56,21.86,8.75c1.92,4.29,4.76,3.03,4.37,9.62
			c-3.52-1.45-32.33-11.08-38.92-13.12c-7.86-2.45-10.41-0.71-10.93-0.87c-5.27-1.7-10.48-3.54-15.74-5.25
			c-24.29-7.89-89.26-36.88-103.2-40.25c-4.68-1.13-6.39-1.52-11.37-1.75c0.87-0.66,0.87-0.66,1.75-1.31
			C690.76,113.27,692.71,113.02,717.53,112.3z"/>
		<path class="st7" d="M721.03,47.55c-0.54,2.62,1.5,4.57,1.75,7c1.5,14.36-1.47,38.97,0.44,55.12c20.27-0.34,40.55-1.42,60.78-2.62
			c6.05-0.36,40.59-0.75,41.98-3.94c1-2.31-2.53-43.37-0.87-50.31c1.46-0.04,2.92,0.04,4.37,0c0,24.28,0,24.28,0,48.56
			c15.96-0.22,15.96-0.22,31.92-0.44c-0.22-25.37-0.22-25.37-0.44-50.75c1.16-0.05,2.34,0.05,3.5,0c0,24.72,0,24.72,0,49.44
			c12.68,0.22,12.68,0.22,25.36,0.44c0,0.35,0.84,0.99,0.87,7c-3.07,0.43-25.48,0.24-26.24,1.31c-1.7,2.4-0.46,49.46-0.87,57.31
			c-3.76-1.32-3.31-1.68-3.5-1.75c-0.22-28-0.22-28-0.44-56c-14.65,0.22-14.65,0.22-29.3,0.44c-0.44,22.53-0.44,22.53-0.87,45.06
			c-0.99-0.34-2.51-0.53-3.5-0.87c-0.22-21.87-0.22-21.87-0.44-43.75c-15.57,0.58-31.24,2.1-46.79,2.62
			c-19.52,0.65-39.07,1.18-58.6,1.75c-3.34,0.1-2.49-0.88-2.62-0.87c0.19-21.34,2.38-43.47,1.75-64.75
			C720.15,47.55,720.15,47.55,721.03,47.55z"/>
		<path class="st5" d="M787.5,5.55c0,7.45-0.2,14.35,0,21.87c0.15,5.65-1.91,12.11-0.87,17.94c1.27,2.86,32.95-0.93,38.04,0.44
			c1.83-1.3-0.47-15.78-0.44-18.37c0.13-11.64,1.17-23.34,0.87-35c0.62,0.3,3.38,1.08,5.25,1.75c0,11.67-0.01,23.33,0,35
			c0,2.49-2.73,14.35,0.44,15.75c14.43-0.44,14.43-0.44,28.86-0.87c0.92-0.87,0.35-9.31,0.44-11.37c0.44-10.91,0.4-22.37-0.87-33.25
			c2.21,0.01,4.93,0.25,7,0c-1.09,11.39-1.55,23.6-0.87,35c0.09,1.61-0.46,8.12,0.44,8.75c1.01,0.72,17.96-0.15,17.93-3.5
			c0.77,0.33,4.78,0.61,5.25,0.87c0.3,0.17-1.48,3.88,3.5,2.19c-0.87,2.97-1.53,1.98-1.75,6.56c-8.7-0.33-17.53,0.49-26.24,0.87
			c-1.16,0.05-2.34-0.05-3.5,0c-10.37,0.41-20.69,0.56-31.05,0.87c-0.72,0.02-0.35,1.75-0.44,1.75c-1.46,0.04-2.92-0.04-4.37,0
			c-13.2,0.37-26.88-0.2-40.23,0c-12.41,0.18-52.55-1.82-60.78,0c-0.28,0.06-1.36,1.2-1.31,1.75c-0.25-2.43-2.29-4.38-1.75-7
			c6.56-0.22,6.56-0.22,13.12-0.44c0-10.28,0-10.28,0-20.56c0.58,0,1.17,0,1.75,0c0.06,2.88-0.45,20.37,0.44,21
			c21.86,0,21.86,0,43.73,0c0.89-0.63,0.37-18.11,0.44-21c0.07-3.2-0.04-6.42,0-9.62c0.02-1.75-0.02-3.5,0-5.25
			c9.4,1.85,2.94-12.32,6.12-21C786.62-4.37,787.5,0.8,787.5,5.55z"/>
		<path class="st25" d="M890.7,107.05c0.14,22.86,1.71,45.8,0.87,68.69c-0.25,0.47-5.36-1.08-6.12-1.31
			c-7.19-2.19-14.63-6.21-21.86-8.75c0.42-7.85-0.82-54.92,0.87-57.31C865.22,107.29,887.63,107.48,890.7,107.05z"/>
		<path class="st9" d="M890.7,49.3c-0.73,15.08-1.05,35.63-0.87,50.75c-12.68-0.22-12.68-0.22-25.36-0.44c0-24.72,0-24.72,0-49.44
			C873.16,49.79,882,48.97,890.7,49.3z"/>
		<path class="st26" d="M888.95-3.2c-0.07,0.36-1.61,0.72-3.5,6.56c-1.19,3.66,1.81,2.9,1.75,3.06c-0.6,1.6-15.25,28.51-18.37,28
			c-1.13-0.16-2.35,0.1-3.5,0c-0.67-11.4-0.22-23.61,0.87-35c5.72-0.68,16.56-5.68,22.74-7.87C888.91-8.18,889.95-8.17,888.95-3.2z"
			/>
		<path class="st27" d="M693.92-106.44c-8.68,15.95-7.41,39.08,2.62,54.25c-0.87,2.62-0.87,2.62-1.75,5.25
			c-11.42-24.46-30.27-13.68-27.11-23.19c9.61-2.63,8.51-10.89,5.25-19.25c-4.18-10.7-20.26-12.67-28.86-6.56
			c1.09-8.97,10.95-19.6,16.62-27.12C665.54-115.83,684.7-106.54,693.92-106.44z"/>
		<path class="st28" d="M699.16,25.68c1.72,0.1,2.96-0.05,4.37,0c4.64,0.17,9.25,0.81,13.99,0.87c0.17,6.84-0.23,13.72,0,20.56
			c0.02,0.72,1.75,0.35,1.75,0.44c0.63,21.28-1.56,43.41-1.75,64.75c-24.82,0.71-26.77,0.97-6.12,9.19
			c-0.87,0.66-0.87,0.66-1.75,1.31c-10.01-0.47-28.03,2.1-40.23,0.87c0.95-22.07,12.67-63.55,16.62-89.25
			c0.07-0.45,2.13-2.73,2.62-8.75C692.15,25.83,695.69,25.47,699.16,25.68z"/>
		<path class="st0" d="M714.03-36.44c0.01,15.33,8.42,23.84,20.12,32.37c0.18,10.11,0.58,20.58-0.87,30.62
			c-5.25-0.03-10.5,0.07-15.74,0c-4.75-0.06-9.36-0.7-13.99-0.87c-1.47-15.72,2.89-13.16,3.5-17.06c0.54-3.44-5.45-33.4-7-38.94
			c3.94-5.25,3.94-5.25,7.87-10.5C709.71-39.39,712.08-37.62,714.03-36.44z"/>
		<path class="st27" d="M707.91-40.82c-3.94,5.25-3.94,5.25-7.87,10.5c-1.44-5.13-3.02-11.86-5.25-16.62
			c0.87-2.62,0.87-2.62,1.75-5.25C697.2-51.2,706.83-41.67,707.91-40.82z"/>
		<path class="st29" d="M780.5-30.32c-0.65,2,0.08,35.41,0,42c-0.02,1.75,0.02,3.5,0,5.25C758.2,7.3,758.2,7.3,735.9-2.32
			c-0.15-4.02-0.46-24.17-0.87-25.37c5.64-1.23,11.43-1.16,17.05-2.62C761.5-32.77,759.15-38.58,780.5-30.32z"/>
		<path class="st29" d="M734.15-28.57c-2.22,8.19-0.15,16.37,0,24.5c-11.7-8.53-20.11-17.04-20.12-32.37
			C721.87-31.7,733.34-29.29,734.15-28.57z"/>
		<path class="st30" d="M787.5-32.07c-1.59,7.42-0.87,15.24-0.87,22.75c-3.18,8.68,3.28,22.85-6.12,21c0.08-6.59-0.65-40,0-42
			c0.37-1.15,0.94-0.51,2.62-1.75C784.52-32.26,786.5-31.78,787.5-32.07z"/>
		<path class="st31" d="M735.02-27.69c0.41,1.2,0.72,21.36,0.87,25.37c0.36,9.6-0.21,19.27,0,28.87c-0.58,0-1.17,0-1.75,0
			c-0.29,0-0.58,0-0.87,0c1.46-10.05,1.06-20.51,0.87-30.62c-0.15-8.13-2.22-16.31,0-24.5C734.26-28.47,734.62-28.87,735.02-27.69z"
			/>
		<path class="st29" d="M825.1-7.57c0.29,11.66-0.74,23.36-0.87,35c-2,0.32-1.68-0.8-1.75-0.87
			c-16.77-18.96-14.89-18.92-17.05-44.62c-8.96,11.81-8.96,11.81-17.93,23.62c0-4.76-0.88-9.93-0.87-14.87
			c0-7.51-0.71-15.33,0.87-22.75c1.93-0.57,6.98-5.31,7.43-5.25C797.04-37.02,808.85-15.48,825.1-7.57z"/>
		<path class="st26" d="M859.21-0.57c1.27,10.88,1.31,22.34,0.87,33.25c-14.87-1.75-14.87-1.75-29.74-3.5c-0.01-11.67,0-23.33,0-35
			C838.07-3.05,851.02-0.6,859.21-0.57z"/>
		<path class="st32" d="M825.98,152.55c-15.76-5.5-31.45-11.19-47.23-16.62c0-12.25,0-12.25,0-24.5
			c15.55-0.52,31.22-2.05,46.79-2.62C825.76,130.68,825.76,130.68,825.98,152.55z"/>
		<path class="st25" d="M860.09,163.93c-10.15-3.58-20.43-6.94-30.61-10.5c0.44-22.53,0.44-22.53,0.87-45.06
			c14.65-0.22,14.65-0.22,29.3-0.44C859.87,135.93,859.87,135.93,860.09,163.93z"/>
		<path class="st32" d="M778.75,111.43c0,12.25,0,12.25,0,24.5c-7.73-2.66-58.06-18.19-59.47-21.44c0.44-0.66,0.44-0.66,0.87-1.31
			C739.67,112.61,759.23,112.08,778.75,111.43z"/>
		<path class="st33" d="M784.87,52.8c-0.44,27.12-0.44,27.12-0.87,54.25c-20.23,1.21-40.51,2.28-60.78,2.62
			c-1.91-16.16,1.06-40.76-0.44-55.12c-0.05-0.55,1.03-1.69,1.31-1.75C732.32,50.98,772.46,52.99,784.87,52.8z"/>
		<path class="st34" d="M825.1,52.8c-1.65,6.94,1.88,48,0.87,50.31c-1.39,3.19-35.93,3.58-41.98,3.94
			c0.44-27.12,0.44-27.12,0.87-54.25C798.22,52.61,811.9,53.17,825.1,52.8z"/>
		<path class="st34" d="M860.96,50.18c0.22,25.37,0.22,25.37,0.44,50.75c-15.96,0.22-15.96,0.22-31.92,0.44c0-24.28,0-24.28,0-48.56
			c0.09,0-0.28-1.73,0.44-1.75C840.28,50.74,850.59,50.59,860.96,50.18z"/>
		<path class="st14" d="M733.27,26.55c0.29,0,0.58,0,0.87,0c0,10.28,0,10.28,0,20.56c-6.56,0.22-6.56,0.22-13.12,0.44
			c-0.87,0-0.87,0-1.75,0c0-0.09-1.72,0.28-1.75-0.44c-0.23-6.84,0.17-13.72,0-20.56C722.77,26.62,728.03,26.52,733.27,26.55z"/>
		<path class="st14" d="M780.5,26.55c-0.07,2.89,0.45,20.37-0.44,21c-21.86,0-21.86,0-43.73,0c-0.89-0.63-0.38-18.11-0.44-21
			C750.76,26.59,765.63,26.53,780.5,26.55z"/>
		<path class="st0" d="M822.48,26.55c-17.49,0.44-17.49,0.44-34.98,0.87c-0.2-7.53,0-14.42,0-21.87
			c8.96-11.81,8.96-11.81,17.93-23.62C807.59,7.64,805.71,7.59,822.48,26.55z"/>
		<path class="st0" d="M780.5,16.93c-0.04,3.21,0.07,6.42,0,9.62c-14.87-0.03-29.74,0.04-44.6,0c-0.21-9.61,0.36-19.28,0-28.87
			C758.2,7.3,758.2,7.3,780.5,16.93z"/>
		<path class="st28" d="M824.23,27.43c-0.03,2.6,2.26,17.08,0.44,18.37c-5.09-1.37-36.78,2.42-38.04-0.44
			c-1.04-5.83,1.02-12.28,0.87-17.94c17.49-0.44,17.49-0.44,34.98-0.87C822.54,26.63,822.23,27.75,824.23,27.43z"/>
		<path class="st35" d="M860.09,32.68c-0.08,2.07,0.48,10.51-0.44,11.37c-14.43,0.44-14.43,0.44-28.86,0.87
			c-3.16-1.4-0.44-13.26-0.44-15.75C845.22,30.93,845.22,30.93,860.09,32.68z"/>
	</g>
	<g>
		<path class="st36" d="M889.82,184.05c4.89,2.01,6.03,1.5,3.5,7c-0.4-0.16-3.74,0.19-6.56-0.87
			c-12.66-4.76-35.13-16.32-45.92-19.25c-0.44-0.12-0.97,0.09-0.87-0.87c0.52,0.17,3.07-1.57,10.93,0.87
			C857.49,172.98,886.31,182.6,889.82,184.05z"/>
		<g>
			<path class="st5" d="M401.8-75.82c-1.15,0.72-13.64-1.08-12.24,20.56c15.41,4.39,4.24-15.2,11.37-16.19
				c-4.4,21.24,10.58,24.65-11.37,28c-0.51-0.25-9.95-4.23-10.5-4.37c-2.6-0.7-4.44-0.4-7,0c1.89-4.78-2.97-5.55-3.5-8.31
				c-4.68-24.37,6.26-25.4,18.8-38.06C395.38-93.09,416.56-85.01,401.8-75.82z"/>
			<path class="st37" d="M401.8-75.82c-0.47,1.43-0.58,2.96-0.87,4.37c-7.13,0.99,4.04,20.58-11.37,16.19
				C388.16-76.9,400.65-75.1,401.8-75.82z"/>
			<g>
				<path class="st38" d="M367.69-10.2c5.11,1.36-1.93,13.08,2.62,16.62c-0.65,12.22-0.47,24.11,0,36.31
					c10.93,0.66,10.93,0.66,21.86,1.31c-10.93,0.22-10.93,0.22-21.86,0.44c-2.07,17.98-7.56,36.25-8.75,53.81
					c-3.94,20.53-6.05,8.65-27.99-2.19c2.4-20.06-5.94-15.08-7-18.37c-0.95-2.94,13.62-46.49,14.43-53.81
					c-2.78,5.74-6.58,11.8-7.87,18.37c-3.3-6.52,2.32-13.25,3.06-18.37c0.04-0.29-0.04-0.59,0-0.87c1.43,0.24,2.81-1.17,3.5-2.19
					c1.54-2.26,20.02-44.07,20.12-50.75c2.19,23.62,2.19,23.62,4.37,47.25C365.95,20.43,367.32-7.13,367.69-10.2z"/>
				<path class="st39" d="M392.18,44.05c0.44,0,0.44,0,0.87,0c-0.94,6.02-5.55,28.48-7,33.69c-0.71,2.58-5.79,5.84-6.12,7
					c-0.29,1.01,1.39,1.71,0.87,3.5c-3.29,11.49-6.09,23.14-9.62,34.56c-0.38,1.24-0.86,0.82-0.87,0.87c-4.37,0-4.37,0-8.75,0
					c0.4-8.24,0.93-17.16,0-25.37c1.19-17.56,6.67-35.83,8.75-53.81C381.25,44.27,381.25,44.27,392.18,44.05z"/>
			</g>
			<path class="st6" d="M370.32,123.68c-2.54,8.1-5.43,16.13-7,24.5c-0.99-0.23-2.02,0.32-3.5-0.87c1.18-3.37,1.43-17.19,1.75-22.75
				c0.02-0.29-0.01-0.58,0-0.87C365.95,123.68,365.95,123.68,370.32,123.68z"/>
			<g>
				<path class="st40" d="M389.56-43.44c23.71,11.83,13.47,22.94,14.87,42.44c0.14,1.97,2.51,13.14,3.5,24.06
					c0.24,2.6-0.17,6.47,1.75,8.75c-0.84,1.56-1.84,3.63-2.62,5.25c-1.7,0.45-3.77,0.76-5.25,1.75c-1.74-7.07-4.02-13.77-5.25-21
					c-2.56-15.09-2.62-30.28-2.19-45.5c-3.18,15.13-0.83,30.57-0.44,45.94c0.02,0.72,1.75,0.35,1.75,0.44
					c0.12,4.78-1.01,18.43-1.75,23.62c-0.12,0.82-0.75,0.92-0.87,1.75c-0.44,0-0.44,0-0.87,0c-10.93-0.66-10.93-0.66-21.86-1.31
					c-0.47-12.2-0.65-24.09,0-36.31c0.7-13.08,2.92-25.95,4.37-38.94c4.85-3.5,0.01,8.99,0,9.62c-0.26,16.62,3.08,46.25,12.24,60.37
					c6.98,10.76-2.05-7.94-2.62-9.62c-11.49-33.86-3.26-63.32-4.37-66.5c-1.01-2.89-8.16-1.41-0.87-9.19
					C379.61-47.67,389.05-43.7,389.56-43.44z"/>
				<path class="st40" d="M370.32-46.94c-1.88,6.21-5.66,17.22,1.31,11.37c1.06,0.73-2.75,15.66-3.94,25.37
					c-0.38,3.07-1.75,30.63-3.5,27.56c-2.19-23.62-2.19-23.62-4.37-47.25c-0.1,6.67-18.57,48.48-20.12,50.75
					c-0.69,1.02-2.07,2.43-3.5,2.19c0.16-1.06-0.39-11.67,1.75-21.44C341.81-15.94,351.46-41.78,370.32-46.94z"/>
				<path class="st41" d="M379.06-47.82c-7.28,7.78-0.13,6.3,0.87,9.19c1.11,3.18-7.12,32.64,4.37,66.5
					c0.57,1.68,9.6,20.39,2.62,9.62c-9.16-14.12-12.51-43.75-12.24-60.37c0.01-0.63,4.85-13.13,0-9.62
					c-1.46,12.99-3.68,25.86-4.37,38.94c-4.55-3.55,2.48-15.26-2.62-16.62c1.19-9.71,5-24.64,3.94-25.37
					c-6.97,5.84-3.2-5.16-1.31-11.37c0.82-0.23,0.98-0.75,1.75-0.87C374.63-48.22,376.47-48.52,379.06-47.82z"/>
				<path class="st42" d="M396.56,17.8c1.22,7.23,3.51,13.93,5.25,21c-1.47,0.99-2.47,1.44-2.62,3.5c-2.62,0-2.62,0-5.25,0
					c0.74-5.2,1.87-18.85,1.75-23.62C396.12,18.24,396.12,18.24,396.56,17.8z"/>
				<path class="st43" d="M396.56,17.8c-0.44,0.44-0.44,0.44-0.87,0.87c0-0.09-1.73,0.28-1.75-0.44
					c-0.39-15.37-2.74-30.8,0.44-45.94C393.94-12.47,394,2.72,396.56,17.8z"/>
			</g>
			<path class="st41" d="M407.05,37.05c-0.35,0.73-2.34,11.56-5.68,14.87c0.07-3.7-2.29-8.18-2.19-9.62
				c0.15-2.06,1.16-2.51,2.62-3.5C403.28,37.81,405.35,37.5,407.05,37.05z"/>
		</g>
		<g>
			<path class="st6" d="M564.48-88.07c-7.43-0.44-7.43-0.44-14.87-0.87c-2.37-17.87-0.15-16.03,17.05-15.75
				C572.79-99.51,564.74-88.96,564.48-88.07z"/>
			<path class="st44" d="M564.48-88.07c-0.39,1.32-0.43,7.11-0.87,9.62c-2.51-0.59-8.69-1.06-11.37-0.87
				c-3.72-6.88-2.45-8.32-2.62-9.62C557.04-88.51,557.04-88.51,564.48-88.07z"/>
			<path class="st45" d="M560.98,169.18c-0.8,12.45,2.11,14.32-11.37,7.87c-0.01-2.56,1.57-6.85,1.75-8.75
				C554.55,169.63,557.72,168.95,560.98,169.18z"/>
			<path class="st38" d="M512.88,30.93c-0.65,6.25,6.48,19.4-4.81,19.25c-2.35-1.07-1.86-16.37-2.19-19.25
				C509.38,30.93,509.38,30.93,512.88,30.93z"/>
			<g>
				<path class="st46" d="M563.6-78.44c0.99,0.23,15.66,6.89,18.8,7.87c21.52,14.84,16.52,73.48,12.68,96.25
					c-1.23,7.29-4.11,17.71-5.68,25.37c-8.03-19.83,2.17-18.62-4.81-26.69c-0.44-4.16-0.44-4.16-0.87-8.31
					c-4.09,1.73,2.06,4.31-9.18,2.62c-6.01-0.9-46.08-10.36-52.91-14c-0.37-17.77-0.93-3.92-6.12,14.87
					c0.06,8.1-2.56,10.79-2.62,11.37c-3.5,0-3.5,0-7,0c-0.1-0.83-0.79-0.92-0.87-1.75c-3.07-28.83-1.51-54.89,10.49-81.81
					c8.84-19.83,14.73-22.52,35.42-24.94c0.7-0.08,1.2-1.74,1.31-1.75C554.91-79.5,561.09-79.03,563.6-78.44z"/>
				<path class="st47" d="M521.62,4.68c0.1,4.91-0.1,9.94,0,14.87c-3.09,0.58-2.28,2.64-6.12,0C520.7,0.75,521.25-13.09,521.62,4.68
					z"/>
			</g>
			<g>
				<path class="st5" d="M583.72,16.05c-0.62,18.55-4.63,36.54-7.87,54.69c-0.17,0.95-3.7,1.15-2.62,18.37
					c0.06,0.95,2.61,4.96,2.62,5.25c0.53,9.55-3.05,18.97-4.37,28.44c-1.4,9.97-1.94,20.3-3.5,30.19c-0.08,0.49-2.06,0.38-3.5,9.19
					c-0.22,1.38,0.21,2.99,0,4.37c-0.08,0.55-0.71,0.76-0.87,3.5c-1.08-0.58-1.29-0.78-2.62-0.87c-3.26-0.22-6.43,0.45-9.62-0.87
					c0.35-3.71-0.66-8.17,0-11.81c0.71-3.94,9.09-20.44-1.75-6.12c-1.65,2.18-4.99,10.8-5.68,10.94
					c-12.61-9.32-1.54-14.88-1.31-17.94c0.09-1.19-7.61-18.88-8.75-22.31c-0.8-2.41-4.08-7.88-4.37-10.06
					c-0.96-7.13,2.19-11.99,1.75-19.25c-0.4-6.59-8.69-27.36-9.62-72.19c-0.1-4.94,0.1-9.96,0-14.87c6.83,3.64,46.91,13.1,52.91,14
					C585.78,20.36,579.62,17.79,583.72,16.05z"/>
				<path class="st13" d="M550.05,41.43c3.57,14.42,1.78,29.66,3.06,44.19c0.5,5.72,4.16,14.41,4.37,17.5
					c0.38,5.45-2.07,9.1-1.75,15.75c0.05,1.05,4.04,0.92,2.62,20.12c-6.58,10.46-2.1-3.63-5.25-15.75
					c-1.14-4.38-8.34-15.16-8.75-18.37C543.96,101.71,549.74,52.47,550.05,41.43z"/>
			</g>
		</g>
		<g>
			<path class="st5" d="M666.8,127.18c0.53,0.11,1.18-0.05,1.75,0c0.28,10.09,7.59,14.28,7,17.06c-0.1,0.46-2.13,0.48-2.62,1.75
				c-9.74,25.16-15.64,18.07-19.68,20.56c-0.91,0.56-0.17,2.06-0.44,2.62c-0.05,0.11-1.34,1.69-1.75,1.75
				c-1.11-1.63-4.2-4.12-5.25-6.12c0.24-0.31-0.25-2.26,0-2.62c1.17-1.71,2.9-3.18,3.5-5.25c16.49-8.91,10.86-16.12,11.37-30.19
				c0.02-0.65,1.75-1.2,1.75-1.31C663,126.54,665.63,126.94,666.8,127.18z"/>
			<g>
				<path class="st48" d="M694.79-46.94c2.22,4.76,3.81,11.49,5.25,16.62c1.55,5.54,7.54,35.5,7,38.94
					c-0.61,3.9-4.97,1.34-3.5,17.06c-1.41-0.05-2.65,0.1-4.37,0c1.69-17.28-3.88-13.53-4.81-14.87c-6.03-8.71-3.35-13-4.81-17.94
					c-4.71-15.89-0.15,23.91-0.87,32.81c-0.49,6.02-2.55,8.3-2.62,8.75c-27.11,0-27.11,0-54.22,0c-0.4-8.75,0.88-10.8,0.87-11.37
					c-0.16-11.95,0.48-23.93-0.44-35.87c-2.75,13.08-5.45,26.15-7.43,39.37c-0.79,5.28-0.93,10.55-2.19,15.75
					c-2.01-10.57-6.23-17.44-6.56-18.37c-3.32-9.28-0.34-4.27,0-8.31c1.69-20.17,2.86-66.87,23.61-77.44
					c0.7-0.35,10.9-2.23,14.87-4.81c-10.99-9.86-9.32-10.57-13.12-24.94c0.2-0.16,0.53-2.89,2.62-4.37
					c8.6-6.11,24.68-4.14,28.86,6.56c3.26,8.36,4.36,16.62-5.25,19.25C664.52-60.62,683.36-71.4,694.79-46.94z"/>
				<path class="st37" d="M656.75-84.57c13.69-3,13.59,24.41,0,17.5C651.2-72.9,649.67-79.28,656.75-84.57z"/>
				<path class="st0" d="M699.16,25.68c-3.48-0.21-7.01,0.15-10.49,0c0.73-8.9-3.84-48.7,0.87-32.81c1.46,4.94-1.22,9.22,4.81,17.94
					C695.29,12.15,700.86,8.4,699.16,25.68z"/>
				<path class="st49" d="M632.69,23.05c-3.94,1.75-3.94,1.75-7.87,3.5c1.98-13.23,4.69-26.29,7.43-39.37
					C633.17-0.88,632.53,11.1,632.69,23.05z"/>
			</g>
			<g>
				<path class="st50" d="M686.04,34.43c-3.95,25.69-15.67,67.18-16.62,89.25c-0.17,3.88-0.88,3.32-0.87,3.5
					c-0.57-0.05-1.22,0.11-1.75,0c-2.62-2.9-1.87-8.31-1.75-12.69c0.61-22.45,3.64-45.01,5.25-67.37c-1.09-1.09-1.09-1.09-2.19-2.19
					c-7.78,28.98-4.94,54.28-5.68,80.5c0,0.11-1.73,0.66-1.75,1.31c-0.51,14.07,5.12,21.28-11.37,30.19
					c3.35-11.55,0.63-14.39-0.87-24.5c-0.47-3.16-2.19-6.62-2.62-9.62c-2.22-15.18-2.88-30.91-5.25-45.94
					c-0.08-0.49-2.55-2.13-2.62-2.62c-2.03-13.12-5.52-26.55-6.12-39.81C658.93,34.43,658.93,34.43,686.04,34.43z"/>
				<path class="st9" d="M666.8,127.18c-1.18-0.23-3.8-0.64-4.37-1.75c0.75-26.21-2.1-51.52,5.68-80.5
					c1.09,1.09,1.09,1.09,2.19,2.19c-1.61,22.37-4.63,44.92-5.25,67.37C664.93,118.87,664.18,124.27,666.8,127.18z"/>
			</g>
		</g>
		<g>
			<path class="st0" d="M888.95,40.55c-0.46-0.26-4.47-0.54-5.25-0.87c-4.94-2.11-9.43-4.49-14.87-5.25
				c3.12,0.51,17.76-26.4,18.37-28c0.44,0,0.44,0,0.87,0C888.07,17.69,889.88,29.22,888.95,40.55z"/>
			<path class="st51" d="M888.07,6.43c-0.44,0-0.44,0-0.87,0c0.06-0.17-2.94,0.6-1.75-3.06c1.89-5.84,3.42-6.2,3.5-6.56
				C889.87-0.11,888.07,3.6,888.07,6.43z"/>
			<path class="st35" d="M868.83,34.43c5.44,0.76,9.93,3.14,14.87,5.25c0.03,3.35-16.92,4.22-17.93,3.5
				c-0.89-0.63-0.34-7.14-0.44-8.75C866.48,34.53,867.7,34.27,868.83,34.43z"/>
		</g>
		<g>
			<path class="st6" d="M449.91-52.19c-1.61,2.17-0.52,4.69-0.87,7c-4.15,26.73-38.17,54.3-29.74,79.62
				c-1.31,0.44-1.31,0.44-2.62,0.87c-1.07-8.98,0.36-17.23-7-3.5c-1.92-2.28-1.51-6.15-1.75-8.75c3.36-2.37,4.98-9.15,5.25-9.62
				c7.48-13.29,28.33-42.63,29.74-56.44c0.04-0.38-1.76-2.05-1.75-2.19c0.16-3.02-0.01-3.86,0-4.37c2.91,0.28,0.48-0.8,0.87-3.94
				C446.49-58.7,444.51-52.58,449.91-52.19z"/>
			<path class="st6" d="M449.91-52.19c-5.39-0.38-3.42-6.51-7.87-1.31c-0.39,3.14,2.04,4.22-0.87,3.94
				c0.07-2.75-3.05-8.98,5.68-16.62C456.07-67.73,462.35-51.32,449.91-52.19z"/>
			<path class="st39" d="M461.28,42.3c0.98,0.03,1.82-0.27,1.75,0.87c-1.41,11.53-4.9,42.18-6.12,48.56
				c-0.29,1.5-4.26,12.38-7.87,29.31c-1.62,7.61-4.86,15.47-6.12,23.19c-0.69,4.2,1.25,7.67,0.87,10.94c-3.6,1.6-4-0.12-7.87,2.62
				c-7.75-2.64-0.22-10.15,0-11.81c1.86-14.23,1.04-54.91,2.62-74.37c-0.87,0-0.87,0-1.75,0c-0.28,18.86-9.98,54.44-1.75,64.75
				c-2.82,3.48-2.7,6.91-4.37,11.81c-0.87-0.87-0.87-0.87-1.75-1.75c0.1-0.82-0.6-1.13-1.31-0.87c-0.81,0.29-7.43,13.45-3.94-5.25
				c2.68-9.47-2.43-15.36-2.62-17.5c-1.44-16.2,1.01-33.15,0-49.44c-0.59-9.54-3.09-27.27-4.37-38.06c1.31-0.44,1.31-0.44,2.62-0.87
				C423.01,38.6,454.34,42.06,461.28,42.3z"/>
			<path class="st38" d="M482.27,33.55c0.07,2.35,2.66,12.61-0.44,14c-10.26,1.61-6.29-6.62-7.43-12.25c-0.06-0.28,0.06-0.59,0-0.87
				C478.33,33.99,478.33,33.99,482.27,33.55z"/>
			<g>
				<path class="st40" d="M482.27,32.68c0.01,0.29-0.01,0.58,0,0.87c-3.94,0.44-3.94,0.44-7.87,0.87c-2.54-12.55-4.99-24.98-7-37.62
					c-0.02-5.17,0.5-11.29-0.87-10.06c-1.17,11.36-2.07,49.39-3.5,54.25c-0.21,0.73-1.86,0.03-1.75,1.31
					c-6.94-0.24-38.27-3.7-41.98-7.87c-8.43-25.32,25.58-52.9,29.74-79.62c4.03,0.27,14.53,4.18,17.05,6.12
					C476.97-30.69,481.73,18.27,482.27,32.68z"/>
				<path class="st40" d="M413.17,13.43c-5.06-5.4,3.51-38.68,6.12-44.19c4.26-8.99,12.51-13.24,21.86-14.44
					c-0.01,0.14,1.79,1.8,1.75,2.19C441.5-29.2,420.65,0.14,413.17,13.43z"/>
				<path class="st52" d="M474.39,34.43c0.06,0.28-0.06,0.59,0,0.87c-4.81,0-4.81,0-9.62,0c1.37-12.2,2.66-26.29,2.62-38.5
					C469.41,9.45,471.86,21.88,474.39,34.43z"/>
				<path class="st53" d="M467.4-3.2c0.04,12.21-1.25,26.3-2.62,38.5c-1.14,10.15-1.7,7.44-1.75,7.87c0.07-1.14-0.77-0.84-1.75-0.87
					c-0.11-1.28,1.53-0.59,1.75-1.31c1.43-4.86,2.33-42.89,3.5-54.25C467.89-14.49,467.38-8.36,467.4-3.2z"/>
			</g>
			<path class="st54" d="M435.91,157.8c-1.42,1.01-15.09,19.27-22.74,18.81c8.26-7.68,13.87-17.82,17.49-28.44
				c1.67-4.9,1.55-8.34,4.37-11.81c-8.23-10.31,1.47-45.89,1.75-64.75c0.87,0,0.87,0,1.75,0c-1.58,19.46-0.77,60.14-2.62,74.37
				C435.7,147.65,428.16,155.16,435.91,157.8z"/>
		</g>
		<g>
			<path class="st13" d="M521.62,19.55c0.93,44.83,9.22,65.59,9.62,72.19c0.44,7.26-2.71,12.12-1.75,19.25
				c0.29,2.18,3.57,7.65,4.37,10.06c-42.42,0-42.42,0-84.83,0c3.61-16.93,7.58-27.81,7.87-29.31c1.22-6.38,4.71-37.03,6.12-48.56
				c0.05-0.43,0.61,2.27,1.75-7.87c4.81,0,4.81,0,9.62,0c1.14,5.63-2.82,13.86,7.43,12.25c3.1-1.39,0.51-11.65,0.44-14
				c-0.01-0.29,0.01-0.58,0-0.87c11.37-1.75,11.37-1.75,22.74-3.5c0.09,0.83,0.78,0.92,0.87,1.75c0.33,2.88-0.16,18.18,2.19,19.25
				c11.29,0.15,4.16-13,4.81-19.25c0.06-0.58,2.69-3.27,2.62-11.37C519.34,22.2,518.53,20.14,521.62,19.55z"/>
			<path class="st13" d="M595.09,25.68c10.49-0.87,10.49-0.87,20.99-1.75c0.33,0.93,4.55,7.81,6.56,18.37
				c1.26-5.2,1.39-10.47,2.19-15.75c3.94-1.75,3.94-1.75,7.87-3.5c0.01,0.57-1.27,2.62-0.87,11.37c0.6,13.26,4.09,26.7,6.12,39.81
				c0.08,0.49,2.55,2.13,2.62,2.62c2.37,15.03,3.03,30.76,5.25,45.94c-15.31,0-15.31,0-30.61,0c-21.86,0-21.86,0-43.73,0
				c1.32-9.46,4.9-18.89,4.37-28.44c-0.02-0.29-2.56-4.3-2.62-5.25c-1.07-17.23,2.45-17.43,2.62-18.37
				c3.24-18.14,7.25-36.14,7.87-54.69c0.44,4.16,0.44,4.16,0.87,8.31c6.98,8.06-3.22,6.86,4.81,26.69
				C590.98,43.39,593.86,32.97,595.09,25.68z"/>
			<g>
				<path class="st7" d="M534.74,295.17c0.79,0.97,0.62,1.86,0.87,2.62c3.43,10.28,17.71,26.89,22.74,37.62
					c-15.16,0.01-30.32-0.01-45.48,0c-2.76-8.87-3.03-17.95-3.5-27.12c-0.09-1.74,0.01-3.51,0-5.25c-0.02-2.86-0.14-4.95,0-7.87
					C517.74,292.63,526.41,295.17,534.74,295.17z"/>
				<path class="st55" d="M895.94,271.55c-0.09,21.29,0.07,42.58,0,63.87c-2.62,0-2.62,0-5.25,0c0-32.37,0-32.37,0-64.75
					C891.71,271.21,894.82,272.52,895.94,271.55z"/>
				<g>
					<path class="st7" d="M549.61,177.05c13.48,6.44,10.57,4.58,11.37-7.87c1.33,0.09,1.55,0.3,2.62,0.87
						c-0.15,2.4-1.75,2.75-1.75,3.06c0.04,11.51,22.49,37.5,36.73,33.69c0.59,0.28,1.17,0.58,1.75,0.87
						c7.4,3.77,13.22,8.82,20.12,13.12c7.34,4.58,21.2,11.18,26.24,15.75c1.3,1.17,3.85,4.46,5.25,6.12
						c3.7,4.43,5.86,10.53,9.62,14.87c7.28,8.41,25.89,13.77,27.55,15.75c2.2,2.62,0.75,6.25,3.06,10.06
						c0.5,0.82,11.77,14.14,12.68,14.44c4.78,1.58,86.4-1.2,100.58,0c-9.31-8.27-26.42-16.8-38.04-21.87
						c-4.53-1.98-5.85-1.56-8.75-2.62c-10.22-3.75-5.72-5.06-8.31-7c-21.3-15.98-36.19-24.19-61.66-31.5
						c-14.07-7.75-13.08-17.81-15.74-26.25c-0.74-2.36,0.2-3.46-1.75-7c-1.81-3.28-13.86-14.29-14.87-16.19
						c-1.39-2.62-0.15-6.92-5.25-14.44c0.41-0.06,1.7-1.64,1.75-1.75c3.07,5.03,6.82,4.31,9.62,5.25
						c26.95,9.1,44.3,18.57,69.97,30.62c0.76,0.36,4.83,4.23,14.43,8.75c5.3,2.49,11.66,3.65,17.05,6.12
						c8.96,4.1,17.89,8.93,25.8,14.87c22.96,5.25,22.96,5.25,45.92,10.5c2.04,1.66,3.01,4.26,5.68,5.25c5,1.85,8.3-2.96,33.67,9.62
						c3.81,1.89,12.1,8.57,15.74,10.5c0,32.37,0,32.37,0,64.75c-110.2,0.05-220.4-0.06-330.59,0
						c-12.24-18.81-12.24-18.81-24.49-37.62c-0.26-0.77-0.09-1.66-0.87-2.62c12.28,0,24.82-1.81,37.17-0.87
						c0.62-1.4-2.89-3.31-3.94-4.37c-6.82-6.96-14.34-11.9-20.12-20.12c-1.15-1.63-2.43-3.56-3.5-5.25
						c-0.72-1.14-11.55-20.66-13.12-23.62c-1.5-2.83-3.97-5.23-5.25-7.87c-11.1-22.95-1.16-76.36,17.49-70.44
						c-7.03,19.57-8.61,42.44,17.49,42.87C563.11,202.73,549.67,203.29,549.61,177.05z"/>
					<path class="st56" d="M560.1,335.42c-0.58,0-1.17,0-1.75,0c-5.03-10.74-19.31-27.34-22.74-37.62
						C547.86,316.61,547.86,316.61,560.1,335.42z"/>
					<path class="st47" d="M659.37,178.8c11.22-2.23,19.55,9.11,15.74,9.62C670.71,183.66,662.24,184.76,659.37,178.8z"/>
				</g>
			</g>
			<path class="st13" d="M416.67,35.3c1.28,10.79,3.78,28.52,4.37,38.06c1.01,16.29-1.44,33.23,0,49.44c-24.93,0-24.93,0-49.85,0
				c3.53-11.42,6.33-23.07,9.62-34.56c0.51-1.79-1.16-2.49-0.87-3.5c0.33-1.16,5.41-4.42,6.12-7c1.44-5.21,6.06-27.67,7-33.69
				c0.13-0.83,0.76-0.93,0.87-1.75c2.62,0,2.62,0,5.25,0c-0.11,1.45,2.26,5.92,2.19,9.62c3.35-3.32,5.33-14.14,5.68-14.87
				c0.78-1.62,1.79-3.69,2.62-5.25C417.03,18.07,415.61,26.32,416.67,35.3z"/>
			<g>
				<path class="st7" d="M430.67,148.18c-3.62,10.61-9.23,20.76-17.49,28.44c7.65,0.46,21.32-17.81,22.74-18.81
					c3.87-2.74,4.27-1.02,7.87-2.62c-0.35,3.05-0.65,4.94-1.75,7.87c-0.27,0.74-0.81,2.51-0.87,2.62
					c-3.42,5.95-11.22,8.29-15.74,13.12c-0.15,0.16-0.72,1.59-0.87,1.75c-9.41,10.21-15.29,19.59-19.24,23.62
					c-1.21,1.23-3.09,2.32-4.37,3.5c-6.27,5.76-10.6,9.27-18.37,13.12c-1.16,0.58-2.31,1.24-3.5,1.75
					c-11.94,5.14-57.15,19.52-43.73-8.75c0.94-1.98,4.45-6.24,6.12-7.87c1.51-1.47,29.82-20.27,34.98-23.62
					c5.92-3.85,9.37-4.68,18.37-10.5c7.18-4.64,14.07-8.93,20.99-14c3.42-2.51,8.65-3.65,13.12-11.37
					C429.79,147.3,429.79,147.3,430.67,148.18z"/>
				<path class="st15" d="M363.32,148.18c3.86,0.9,6.24,0.41,5.25,5.25c-1.71,0.42-3.3,3.36-3.5,3.5c-4.04,2.84-7.17,6.91-10.5,10.5
					c-3.13,3.38-5.5,4.35-8.75,8.75c-2.22,3.01-3.41,8.78-4.81,9.62c-0.5,0.3-6.98,0.52-11.37,2.62
					c-8.45,4.06-16.34,9.29-24.93,13.12c-11.71,5.22-36.7,19.94-37.61-2.19c1.12-6.72,41.16-24.25,49.41-27.56
					c5.5-2.2,13.23-2.71,17.93-4.37c7.87-2.78,22.62-12.29,25.36-20.12C361.3,148.5,362.33,147.95,363.32,148.18z"/>
			</g>
			<g>
				<path class="st57" d="M893.32,191.05c0.17,0.07-0.95,1.51,2.62,2.62c-0.04,25.96,0.12,51.92,0,77.87
					c-1.13,0.97-4.23-0.34-5.25-0.87c-3.65-1.93-11.93-8.61-15.74-10.5c4.2-2.4,21.46-4.72,18.37,3.94c0.87,0,0.87,0,1.75,0
					c0-34.12,0-34.12,0-68.25c-3.2-3.73-0.78,3.81-2.19,4.81c-1.2,0.85-12-1.3-15.31,0.87c-4.66-0.12-9.34,0.14-13.99,0
					c2.04-2.88,0.79-8.19-0.44-8.75c-3.33-1.52-63.61-3.66-73.03-4.81c-6.36-11.51,10.3-8.86,17.05-10.06
					c1.02-0.18,1.38-2.56,1.75-2.62c0.23-0.04,3.18,1.95,4.37,1.75c6.11-1.04,12.43-1.51,18.37-2.62c0.58-0.11-0.08-1.37,9.18-3.5
					c10.79,2.93,33.26,14.49,45.92,19.25C889.58,191.24,892.92,190.89,893.32,191.05z"/>
				<path class="st49" d="M688.67,234.8c25.46,7.31,40.35,15.52,61.66,31.5c2.59,1.94-1.91,3.25,8.31,7
					c-33.45,0.44-33.45,0.44-66.91,0.87c-6.86,14.58,58.82,3.04,75.65,1.75c11.63,5.07,28.74,13.6,38.04,21.87
					c-14.18-1.2-95.8,1.58-100.58,0c-0.91-0.3-12.18-13.62-12.68-14.44c-2.31-3.81-0.87-7.45-3.06-10.06
					c-1.66-1.98-20.27-7.34-27.55-15.75c3.71,0.36,6.49-2.16,9.62-3.5c2.06,4.93,25.41-1.58,37.17-1.75c2.41-1.8-15.07-6.26-18.8-7
					c-12.54-2.49-24.79-3.3-37.61-2.62c-1.39-1.67-3.95-4.95-5.25-6.12c0.87-0.22,0.87-0.22,1.75-0.44
					c-1.09-1.53-1.09-1.53-2.19-3.06c10.79-1.25,26.77,3.66,29.3-0.87C679.82,233.34,684.42,233.58,688.67,234.8z"/>
				<path class="st49" d="M709.66,122.8c4.98,0.23,6.69,0.62,11.37,1.75c-11.04,8.41-22.05,1-20.99,8.31
					c11.09,7.45,57.36,5.11,60.35,10.5c0.16,0.3-3.3,3.29,1.75,5.25c1.37,4.94-20.71,4.65-27.55,5.69
					c-0.74,0.11-0.35,1.74-0.44,1.75c-6.46,1.03-22.07,0.66-8.31,2.62c11.26,1.61,28.65,0.65,40.67,0.87
					c3.24,8.01-3.12,6.51-2.62,10.5c-1.3,0.12-0.26-1.94-2.19-1.75c-0.22,0.02-0.72,2.34-3.5,2.62c-22.81,2.3-45.47,5.38-68.22,7.87
					c-0.22,1.31-0.22,1.31-0.44,2.62c-6.53-2.94-2.89-7.43-6.56-9.62c-3.74-2.24-16.85-2.77-20.55,2.62
					c-2.8-0.94-6.56-0.22-9.62-5.25c0.27-0.56-0.48-2.06,0.44-2.62c4.04-2.49,9.94,4.6,19.68-20.56c0.49-1.27,2.53-1.29,2.62-1.75
					c0.59-2.79-6.72-6.97-7-17.06c0-0.18,0.71,0.38,0.87-3.5C681.62,124.9,699.65,122.33,709.66,122.8z"/>
				<path class="st57" d="M874.95,260.17c-25.37-12.59-28.67-7.78-33.67-9.62c-2.67-0.99-3.64-3.59-5.68-5.25
					c-0.39-0.32,1.85-1.13-0.44-2.62c-3.93-2.56-19.51,0.59-7.43-5.25c21.36,7.36,42.62,9.93,65.16,9.62
					c-0.44-5.25-0.44-5.25-0.87-10.5c-17.06,0.72-34.11-0.18-51.16,0c0.42-3.99-9.05,0.46-7.43-3.5c61.98-3.79,26.67-2.64,3.5-9.62
					c-0.88-0.27,0.01-2.31-0.87-2.62c-2.81-0.99-7.96,2.44-8.31-3.5c27.91-0.81,42.55-1.53,3.94-3.5c-9.22-2.67-14.06-6.83-14.87-7
					c-3.38-0.73-55.39-1.17-63.84-0.87c-4.66,0.17-11.89,3.64-15.31-0.87c12.9-0.93,25.54-2.07,38.48-2.62
					c16.53-0.7,33.32-1.64,49.85-1.75c-0.45,1.22,3.56,6.86,3.94,7c3.01,1.08,52.46-0.81,62.97,0c2.62-8.59-1.92-5.79-15.31-6.12
					c3.31-2.17,14.11-0.03,15.31-0.87c1.41-1-1.01-8.54,2.19-4.81c0,34.12,0,34.12,0,68.25c-0.87,0-0.87,0-1.75,0
					C896.41,255.46,879.15,257.78,874.95,260.17z"/>
				<path class="st52" d="M689.54,181.43c18.5,8.32,83.26,3.89,87.02,6.12c2.19,1.3,0.92,12.24-0.44,14.87
					c-12.95,0.55-25.59,1.7-38.48,2.62c-0.26,0.02,0.54-1.05-5.25,0c-25.67-12.05-43.01-21.52-69.97-30.62
					c3.7-5.39,16.81-4.86,20.55-2.62C686.66,174,683.01,178.49,689.54,181.43z"/>
				<path class="st49" d="M827.73,217.3c0.35,5.94,5.5,2.51,8.31,3.5c0.89,0.31-0.01,2.36,0.87,2.62c23.17,6.99,58.48,5.84-3.5,9.62
					c-1.62,3.96,7.85-0.49,7.43,3.5c-0.64,0.01-8.73-1.93-12.68-0.87c-0.76,0.2-0.33,1.7-0.44,1.75c-12.07,5.84,3.51,2.69,7.43,5.25
					c2.29,1.49,0.05,2.31,0.44,2.62c-22.96-5.25-22.96-5.25-45.92-10.5c-7.91-5.94-16.84-10.77-25.8-14.87
					C785.17,218.66,806.41,217.92,827.73,217.3z"/>
				<path class="st47" d="M672.93,208.55c2.66,8.44,1.67,18.5,15.74,26.25c-4.25-1.22-8.85-1.46-13.12-2.62
					c-7.4-2.03-51.33-14.29-54.66-13.12c-0.22,0.87-0.22,0.87-0.44,1.75c-6.89-4.3-12.71-9.35-20.12-13.12
					C636.63,208.11,636.63,208.11,672.93,208.55z"/>
				<path class="st49" d="M737.64,205.05c3.42,4.52,10.64,1.04,15.31,0.87c8.45-0.3,60.46,0.14,63.84,0.87
					c0.8,0.17,5.65,4.33,14.87,7c38.62,1.97,23.98,2.69-3.94,3.5c-21.32,0.62-42.56,1.36-63.84,2.62
					c-5.4-2.47-11.76-3.63-17.05-6.12c-9.6-4.52-13.67-8.39-14.43-8.75C738.19,204,737.38,205.07,737.64,205.05z"/>
				<path class="st52" d="M672.93,208.55c-36.3-0.44-36.3-0.44-72.59-0.87c-0.58-0.3-1.15-0.59-1.75-0.87
					c-0.12-0.06,0.36-1.41-0.44-1.75c-1.89-0.8-15.13-1.09-5.25-2.62c17.21-2.67,58.07,2.7,78.28-0.87
					C673.13,205.09,672.18,206.19,672.93,208.55z"/>
				<path class="st52" d="M675.55,232.17c-2.52,4.54-18.51-0.38-29.3,0.87c1.09,1.53,1.09,1.53,2.19,3.06
					c-0.87,0.22-0.87,0.22-1.75,0.44c-5.04-4.57-18.89-11.17-26.24-15.75c0.22-0.87,0.22-0.87,0.44-1.75
					C624.22,217.89,668.15,230.15,675.55,232.17z"/>
				<path class="st47" d="M689.54,245.3c-5.46,4.16-12.17,6.1-18.37,8.75c-3.13,1.34-5.91,3.86-9.62,3.5
					c-3.76-4.34-5.92-10.45-9.62-14.87C664.75,242,677,242.8,689.54,245.3z"/>
				<path class="st57" d="M567.97,289.92c1.05,1.07,4.56,2.97,3.94,4.37c-12.35-0.94-24.89,0.87-37.17,0.87
					c-8.33,0-17.01-2.54-25.36,0c0.02-0.31-2.67-3.13,0.44-6.12C538.89,289.49,538.89,289.49,567.97,289.92z"/>
				<path class="st49" d="M824.23,164.8c5.27,1.71,10.47,3.55,15.74,5.25c-0.09,0.96,0.44,0.76,0.87,0.87
					c-9.26,2.13-8.6,3.39-9.18,3.5c-5.94,1.11-12.26,1.59-18.37,2.62c-1.2,0.2-4.14-1.79-4.37-1.75c-0.37,0.06-0.73,2.44-1.75,2.62
					c-6.75,1.2-23.42-1.45-17.05,10.06c9.42,1.15,69.7,3.3,73.03,4.81c1.23,0.56,2.47,5.87,0.44,8.75
					c-12.57-0.38-25.02-0.96-37.61-0.87c-16.53,0.11-33.32,1.05-49.85,1.75c1.36-2.64,2.63-13.57,0.44-14.87
					c-3.76-2.24-68.53,2.2-87.02-6.12c0.22-1.31,0.22-1.31,0.44-2.62c22.75-2.49,45.41-5.57,68.22-7.87c2.78-0.28,3.28-2.6,3.5-2.62
					c1.93-0.19,0.89,1.87,2.19,1.75C783.96,168.12,804.56,167.71,824.23,164.8z"/>
				<path class="st57" d="M863.58,201.55c4.66,0.14,9.34-0.12,13.99,0c13.39,0.33,17.92-2.47,15.31,6.12
					c-10.51-0.81-59.96,1.08-62.97,0c-0.38-0.14-4.38-5.78-3.94-7C838.57,200.59,851.02,201.17,863.58,201.55z"/>
				<path class="st47" d="M615.2,122.8c-0.26,0.98,0.51,2.33,1.31,2.62c10,3.68,20.87,5.94,30.61,10.5c0.66-1.75,0.66-1.75,1.31-3.5
					c1.5,10.1,4.22,12.95,0.87,24.5c-0.6,2.07-2.32,3.54-3.5,5.25c-40.67,0-40.67,0-81.34,0c1.44-8.81,3.42-8.7,3.5-9.19
					c1.56-9.89,2.1-20.21,3.5-30.19C593.34,122.8,593.34,122.8,615.2,122.8z"/>
				<path class="st47" d="M645.81,122.8c0.44,3,2.15,6.47,2.62,9.62c-0.66,1.75-0.66,1.75-1.31,3.5
					c-9.74-4.56-20.61-6.82-30.61-10.5c-0.8-0.29-1.57-1.64-1.31-2.62C630.51,122.8,630.51,122.8,645.81,122.8z"/>
				<path class="st52" d="M645.81,162.18c-0.25,0.36,0.24,2.32,0,2.62c-0.56,0.72-1.77,2.48-2.19,2.62
					c-3.74,1.3-68.34-2.66-79.15-0.87c0.21-1.39-0.22-3,0-4.37C605.14,162.18,605.14,162.18,645.81,162.18z"/>
				<path class="st52" d="M671.18,254.05c6.19-2.65,12.91-4.59,18.37-8.75c3.74,0.74,21.22,5.2,18.8,7
					C696.59,252.47,673.24,258.98,671.18,254.05z"/>
				<path class="st49" d="M824.23,164.8c-19.67,2.91-40.27,3.32-60.35,5.25c-0.5-3.99,5.86-2.49,2.62-10.5
					c13.62,0.25,36.4,2.92,30.17-2.62c-13.65-6.84-12.39-1.78-13.99-1.75c-16.19,0.27-32.35,1.3-48.54,0.87
					c0.09-0.01-0.3-1.64,0.44-1.75c6.84-1.04,28.92-0.75,27.55-5.69c-5.05-1.96-1.59-4.95-1.75-5.25
					c-2.99-5.39-49.26-3.05-60.35-10.5c-1.06-7.31,9.95,0.1,20.99-8.31C734.97,127.92,799.94,156.91,824.23,164.8z"/>
				<path class="st58" d="M766.51,159.55c-12.02-0.22-29.41,0.73-40.67-0.87c-13.76-1.96,1.85-1.6,8.31-2.62
					c16.19,0.42,32.35-0.61,48.54-0.87c1.6-0.03,0.35-5.09,13.99,1.75C802.91,162.47,780.12,159.8,766.51,159.55z"/>
				<g>
					<path class="st47" d="M651.06,170.93c5.09,7.52,3.86,11.82,5.25,14.44c1.01,1.9,13.06,12.9,14.87,16.19
						c-20.2,3.57-61.07-1.8-78.28,0.87c-9.88,1.53,3.35,1.82,5.25,2.62c0.8,0.34,0.32,1.69,0.44,1.75
						c-14.24,3.82-36.69-22.18-36.73-33.69c0-0.31,1.6-0.66,1.75-3.06c0.17-2.74,0.79-2.95,0.87-3.5
						c10.81-1.79,75.41,2.17,79.15,0.87c0.41-0.14,1.62-1.9,2.19-2.62C646.86,166.8,649.96,169.29,651.06,170.93z"/>
					<path class="st52" d="M637.5,177.93c9.85-0.02,16-1.9,17.05,4.81c-0.99,2.73-58.53,4.95-55.97-2.62
						C599.21,178.27,633.4,177.93,637.5,177.93z"/>
				</g>
				<path class="st57" d="M840.85,236.55c17.05-0.18,34.11,0.72,51.16,0c0.44,5.25,0.44,5.25,0.87,10.5
					c-22.54,0.3-43.8-2.26-65.16-9.62c0.11-0.05-0.33-1.55,0.44-1.75C832.12,234.62,840.21,236.56,840.85,236.55z"/>
				<g>
					
						<linearGradient id="SVGID_00000118381483379392279570000007504391101819842184_" gradientUnits="userSpaceOnUse" x1="-540.8997" y1="540.3821" x2="-1372.256" y2="555.3813" gradientTransform="matrix(0.4996 0 0 0.4996 692.3397 48.6015)">
						<stop  offset="0" style="stop-color:#F2EBE8"/>
						<stop  offset="0.8758" style="stop-color:#E89C72"/>
					</linearGradient>
					<path style="fill:url(#SVGID_00000118381483379392279570000007504391101819842184_);" d="M430.67,309.17
						c0.87,13.12,0.87,13.12,1.75,26.25c-144.01-0.06-288.03,0.05-432.04,0c-0.1-8.75,0.14-17.5,0-26.25
						c63.84,0.69,127.69,1.08,191.53,0.87c41.35-0.13,82.84-1.65,124.19-1.75C354.28,308.21,392.47,309.11,430.67,309.17z"/>
					
						<linearGradient id="SVGID_00000091727506090200440000000005221967562454064058_" gradientUnits="userSpaceOnUse" x1="-1293.4833" y1="410.8898" x2="-1024.8566" y2="546.859" gradientTransform="matrix(0.4996 0 0 0.4996 692.3397 48.6015)">
						<stop  offset="0" style="stop-color:#E6986F"/>
						<stop  offset="1" style="stop-color:#EEB799"/>
					</linearGradient>
					<path style="fill:url(#SVGID_00000091727506090200440000000005221967562454064058_);" d="M224.26,270.67
						c-0.55,0.36-6.34,8.8-7.87,10.5c-1.63,0.38-1.96-1.54-3.5-0.44c-1.2,0.86-16.7,20.74-18.37,23.19
						c-64.73-1.35-129.58,3.47-194.16,0.87c-0.02-1.75,0.01-3.5,0-5.25c16.24-9.16,32.83-17.8,48.98-27.12
						c29.65,3.41,60.82,1.91,90.96,0.87c10.82-0.37,21.4-2.97,31.92-3.5c5.94-0.3,47.43-1.48,49.85-0.88
						C222.59,269.05,223.28,270.71,224.26,270.67z"/>
					<path class="st47" d="M509.38,308.3c0.46,9.17,0.73,18.25,3.5,27.12c-26.82,0.01-53.64,0.01-80.46,0
						c-0.87-13.12-0.87-13.12-1.75-26.25C456.89,309.22,483.18,309.86,509.38,308.3z"/>
					<path class="st57" d="M194.53,303.92c-0.19,0.28-2.31,5.16-2.62,6.12c-63.85,0.21-127.69-0.18-191.53-0.87
						c-0.02-1.46,0.02-2.92,0-4.37C64.94,307.39,129.8,302.57,194.53,303.92z"/>
					<path class="st47" d="M533.87,121.05c1.14,3.43,8.84,21.12,8.75,22.31c-0.23,3.05-11.3,8.61,1.31,17.94
						c0.69-0.14,4.04-8.76,5.68-10.94c10.84-14.32,2.46,2.19,1.75,6.12c-0.66,3.64,0.35,8.11,0,11.81c-0.18,1.9-1.75,6.19-1.75,8.75
						c0.06,26.24,13.5,25.68,11.37,28.44c-26.1-0.44-24.52-23.31-17.49-42.87c-18.66-5.93-28.59,47.49-17.49,70.44
						c-71.5,0.44-71.5,0.44-142.99,0.87c-0.22-6.56-0.22-6.56-0.44-13.12c7.77-3.85,12.1-7.36,18.37-13.12
						c-1.09,2.62-1.09,2.62-2.19,5.25c59.91,0,59.91,0,119.82,0c0.44-4.37,0.44-4.37,0.87-8.75c-57.07,0-57.07,0-114.13,0
						c3.95-4.03,9.83-13.41,19.24-23.62c2.07,0.51-1.09,2.69,1.31,3.5c4.31,1.45,86.46,0.69,90.96,0c5.25-0.81,7.76-1.95,7.87-7.87
						c-19.2,1.26-86.04-1.68-94.46,0c-1.22,0.24-3.11,2.96-4.81,2.62c4.52-4.83,12.32-7.18,15.74-13.12
						c11.67,0.14,83.5,3.2,87.9,1.75c1.41-0.46,2.42-3.85,3.94-4.81c-11.6,0.52-84.49-2.49-88.77-1.31
						c-0.67,0.18,0.07,2.29-2.19,1.75c1.1-2.94,1.4-4.82,1.75-7.87c0.38-3.26-1.56-6.74-0.87-10.94c1.26-7.71,4.5-15.58,6.12-23.19
						C491.45,121.05,491.45,121.05,533.87,121.05z"/>
					
						<linearGradient id="SVGID_00000054227803929830932660000009509967703118552238_" gradientUnits="userSpaceOnUse" x1="-706.4985" y1="434.0494" x2="-314.4187" y2="525.548" gradientTransform="matrix(0.4996 0 0 0.4996 692.3397 48.6015)">
						<stop  offset="0" style="stop-color:#EFE0D4"/>
						<stop  offset="1" style="stop-color:#F5F6F9"/>
					</linearGradient>
					<path style="fill:url(#SVGID_00000054227803929830932660000009509967703118552238_);" d="M547.86,269.8
						c5.78,8.23,13.29,13.16,20.12,20.12c-29.08-0.44-29.08-0.44-58.16-0.87c-3.11,3-0.42,5.82-0.44,6.12
						c-0.14,2.92-0.02,5.01,0,7.87c-32.83-3.41-172.19,5.5-187.6,2.62c-0.56-0.1-4.44-1.11-3.94-2.19
						c10.28-17.72,10.28-17.72,20.55-35.44C443.13,268.92,443.13,268.92,547.86,269.8z"/>
					<path class="st47" d="M531.24,240.92c1.57,2.96,12.4,22.48,13.12,23.62c-30.9,0.15-61.81-0.2-92.71,0
						c-1.82-1.06-3.75-2.91-5.68-3.5c-7.98-2.42-53.24-11.63-55.97-13.12c-3.17-1.73-1.05-4.49-0.44-7
						C436.78,240.56,484.02,241.2,531.24,240.92z"/>
					<path class="st49" d="M451.66,264.55c30.9-0.2,61.81,0.15,92.71,0c1.07,1.69,2.35,3.62,3.5,5.25
						c-104.73-0.88-104.73-0.88-209.46-1.75c-10.28,17.72-10.28,17.72-20.55,35.44c-0.5,1.08,3.38,2.08,3.94,2.19
						c15.41,2.88,154.77-6.03,187.6-2.62c0.01,1.74-0.09,3.51,0,5.25c-26.2,1.56-52.49,0.92-78.71,0.88
						c-38.2-0.06-76.38-0.97-114.57-0.88c0.33-1.52-1.22-1.98-0.87-3.5c0.45-2,16.54-30.82,20.12-35.44
						c-0.74-2.21-37.23-1.33-41.98-1.31c3.5-0.87,3.5-0.87,7-1.75c28.55-0.14,57.15-0.7,85.71-0.87
						C407.94,265.29,429.78,264.69,451.66,264.55z"/>
					<path class="st49" d="M525.99,233.05c1.28,2.65,3.74,5.05,5.25,7.87c-47.22,0.27-94.46-0.36-141.68,0
						c-22.16,0.17-44.31,0.64-66.47,0.87c0-2.19,0-2.19,0-4.37c7.01-0.09,46.28-0.86,48.54-1.75c3.5-1.37,6.16-9.56,7.43-13.12
						c1.19-0.51,2.34-1.17,3.5-1.75c0.22,6.56,0.22,6.56,0.44,13.12C454.5,233.49,454.5,233.49,525.99,233.05z"/>
					<path class="st58" d="M758.63,273.3c2.89,1.06,4.21,0.65,8.75,2.62c-16.83,1.29-82.51,12.83-75.65-1.75
						C725.18,273.74,725.18,273.74,758.63,273.3z"/>
					<path class="st57" d="M216.39,281.17c-6.61,7.36-20.16,22.16-14.43,21.87c56.63,0.88,56.63,0.88,113.26,1.75
						c-0.34,1.52,1.21,1.98,0.87,3.5c-41.35,0.1-82.84,1.62-124.19,1.75c0.32-0.96,2.44-5.85,2.62-6.12
						c1.66-2.45,17.16-22.33,18.37-23.19C214.44,279.63,214.76,281.55,216.39,281.17z"/>
					<path class="st58" d="M293.36,268.05c4.75-0.01,41.24-0.89,41.98,1.31c-3.57,4.62-19.67,33.44-20.12,35.44
						c-56.63-0.87-56.63-0.87-113.26-1.75c-5.73,0.28,7.82-14.52,14.43-21.87c1.53-1.7,7.32-10.14,7.87-10.5
						c0.54-0.35,2.89-1.71,3.06-1.75C230.53,268.14,283.78,268.08,293.36,268.05z"/>
					<path class="st57" d="M241.75,266.3c18.36-0.05,36.75,0.09,55.1,0c1.17-0.01,2.33,0.01,3.5,0c-3.5,0.88-3.5,0.88-7,1.75
						c-9.58,0.03-62.82,0.09-66.03,0.87c-0.17,0.04-2.52,1.4-3.06,1.75c-0.99,0.03-1.68-1.62-2.19-1.75
						c-2.42-0.6-43.91,0.57-49.85,0.88c-10.52,0.53-21.11,3.13-31.92,3.5c1.37-5.01-7.82-1.51-15.31-2.62
						c-0.47-0.07-1.67-3.22-4.37-3.5c-12.4-1.26-45.59,3.51-61.66-0.88c18.03-10.37,36.04-20.51,54.22-30.62
						c15.17,4.28,37.65-3.94,35.42,6.12c-19.45-1.89-2.4,17.07-15.31,21.44c4.59,1.97,4.59,1.97,9.18,3.94
						C175.57,265.88,208.66,266.4,241.75,266.3z"/>
					<path class="st62" d="M140.3,273.3c-30.14,1.03-61.3,2.53-90.96-0.87c3.25-1.88,6.35-4.24,9.62-6.12
						c16.07,4.38,49.26-0.39,61.66,0.88c2.7,0.28,3.91,3.43,4.37,3.5C132.49,271.79,141.67,268.29,140.3,273.3z"/>
					<path class="st57" d="M268.87,236.55c5.25,0.01,10.5,0.02,15.74,0c-0.93,5.12,2.94,2.78,2.19,4.37c-29.74,0-29.74,0-59.47,0
						c-1.32,3.94,5.79,1.57,6.12,1.75c4.02,2.16,1.13,21.04,8.31,23.62c-33.09,0.1-66.18-0.41-99.27,0.88
						c-4.59-1.97-4.59-1.97-9.18-3.94c12.91-4.37-4.15-23.33,15.31-21.44c2.23-10.07-20.25-1.84-35.42-6.12
						c21.21-11.8,42.49-23.46,63.84-35c0.29-0.03,0.59,0.03,0.87,0c22.43-1.95,51.92,1.34,74.34,4.81
						c-7.29,6.02-51.66,0.92-41.54,7.44c29.99,2.09,24.12,9.62-2.62,7.87c2.58,6.31,35.62,0.37,34.55,4.81
						c-13.83,6.89-29.42,7.4-44.17,10.94C221.94,238.49,245.42,236.51,268.87,236.55z"/>
					<path class="st52" d="M361.57,124.55c-0.32,5.56-0.57,19.38-1.75,22.75c-2.74,7.84-17.49,17.34-25.36,20.12
						c-0.67-3.83,8.55-1.33,4.81-5.25c-13.83-1.13-27.69-1.81-41.54-2.62c3.47-9.21,26.41-14.47,24.49-17.06
						c-13.12-2.41-13.12-2.41-26.24-4.81c6.44-4.16,13.47-8.95,19.24-14C338.4,124.11,338.4,124.11,361.57,124.55z"/>
					<path class="st58" d="M227.76,174.43c36.08,0.87,36.08,0.87,72.15,1.75c-12.18,11.94-18.93,5.17-20.12,5.25
						c-31.76,2.02-62.79,12.52-94.02,14.87C199.74,188.84,213.74,181.73,227.76,174.43z"/>
					<path class="st49" d="M295.98,137.68c13.12,2.41,13.12,2.41,26.24,4.81c1.93,2.6-21.01,7.86-24.49,17.06
						c-12.24-0.72-24.56-1.07-36.73-2.62C272.48,150.61,285.01,144.77,295.98,137.68z"/>
					<path class="st52" d="M400.93,207.67c1.29-1.18,3.16-2.27,4.37-3.5c57.07,0,57.07,0,114.13,0c-0.44,4.37-0.44,4.37-0.87,8.75
						c-59.91,0-59.91,0-119.82,0C399.84,210.3,399.84,210.3,400.93,207.67z"/>
					<path class="st47" d="M424.54,180.55c0.15-0.16,0.73-1.59,0.87-1.75c1.7,0.34,3.59-2.38,4.81-2.62
						c8.42-1.68,75.25,1.26,94.46,0c-0.11,5.92-2.62,7.07-7.87,7.87c-4.49,0.69-86.65,1.45-90.96,0
						C423.45,183.24,426.61,181.06,424.54,180.55z"/>
					<path class="st47" d="M441.16,165.68c0.07-0.12,0.6-1.89,0.87-2.62c2.26,0.54,1.52-1.57,2.19-1.75
						c4.28-1.17,77.17,1.83,88.77,1.31c-1.52,0.97-2.53,4.35-3.94,4.81C524.66,168.88,452.83,165.81,441.16,165.68z"/>
					<path class="st52" d="M389.56,240.92c-0.61,2.51-2.73,5.27,0.44,7c2.73,1.49,47.99,10.7,55.97,13.12
						c1.94,0.59,3.87,2.44,5.68,3.5c-21.87,0.14-43.71,0.74-65.59,0.87c2.22-1.93-13.32-6.69-20.55-8.75
						c-14.34-4.09-46.33-8.06-45.04-14.87c0.87-0.01,1.75,0.01,2.62,0C345.25,241.56,367.4,241.1,389.56,240.92z"/>
					<path class="st49" d="M320.47,241.8c-1.29,6.81,30.7,10.79,45.04,14.87c7.23,2.06,22.77,6.82,20.55,8.75
						c-28.56,0.18-57.16,0.74-85.71,0.87c-1.17,0.01-2.33-0.01-3.5,0c-5.51-7-1-13.22-5.25-21.44
						C298.51,239.02,307.36,241.95,320.47,241.8z"/>
					<path class="st49" d="M323.09,237.42c0,2.19,0,2.19,0,4.37c-0.87,0.01-1.75-0.01-2.62,0c-13.1,0.15-21.96-2.78-28.86,3.06
						c4.25,8.22-0.26,14.44,5.25,21.44c-18.34,0.09-36.74-0.05-55.1,0c-7.18-2.58-4.28-21.46-8.31-23.62
						c-0.34-0.18-7.44,2.19-6.12-1.75c29.74,0,29.74,0,59.47,0c0.76-1.6-3.12,0.74-2.19-4.37
						C297.43,236.5,310.21,237.58,323.09,237.42z"/>
					<path class="st52" d="M335.34,213.8c-13.42,28.26,31.79,13.89,43.73,8.75c-1.27,3.56-3.93,11.75-7.43,13.12
						c-2.26,0.89-41.53,1.66-48.54,1.75c-12.88,0.16-25.66-0.92-38.48-0.87c-5.25,0.02-10.5,0.01-15.74,0
						C283.85,222.51,316.93,204.22,335.34,213.8z"/>
					<path class="st52" d="M376.44,182.3c-5.16,3.35-33.47,22.15-34.98,23.62c-3.21-4.37-26.01-1.57-36.73-4.37
						c8.59-3.83,16.48-9.06,24.93-13.12c4.39-2.11,10.87-2.32,11.37-2.62c1.4-0.84,2.59-6.62,4.81-9.62
						c5.06-2.76,12.7-1.98,18.8-1.75c29.13,1.09,18.81,1.28,14.87,3.5C378.57,178.45,376.17,180.89,376.44,182.3z"/>
					<g>
						<path class="st49" d="M297.73,159.55c13.85,0.82,27.71,1.49,41.54,2.62c3.74,3.92-5.48,1.42-4.81,5.25
							c-4.7,1.66-12.43,2.17-17.93,4.37c-8.26,3.31-48.29,20.85-49.41,27.56c0.9,22.13,25.9,7.41,37.61,2.19
							c10.72,2.81,33.52,0.01,36.73,4.37c-1.67,1.63-5.18,5.89-6.12,7.87c-18.4-9.58-51.48,8.71-66.47,22.75
							c-23.45-0.04-46.93,1.94-70.4,0c14.75-3.53,30.34-4.05,44.17-10.94c1.07-4.44-31.96,1.5-34.55-4.81
							c26.74,1.74,32.62-5.78,2.62-7.87c-10.12-6.52,34.26-1.41,41.54-7.44c-22.42-3.48-51.91-6.76-74.34-4.81
							c2.21-2.04,5.29-2.99,7.87-4.37c31.22-2.36,62.26-12.85,94.02-14.87c1.18-0.08,7.93,6.69,20.12-5.25
							c-36.08-0.87-36.08-0.87-72.15-1.75c11.06-5.76,22.32-11.49,33.23-17.5C273.17,158.48,285.49,158.83,297.73,159.55z"/>
						<path class="st49" d="M302.54,166.55c12.4,0.96,31.29-2.45,15.74,3.5c-0.13,0.05-1.09-1.56-2.62-0.87
							c-1.7,0.76-13,13.52-15.31,1.31C301.45,168.52,301.45,168.52,302.54,166.55z"/>
					</g>
					<path class="st47" d="M421.04,122.8c0.19,2.14,5.3,8.03,2.62,17.5c-0.19,0.66-5.29,0.76-1.75,11.81
						c-1.49,3.52-46.49-0.36-53.35,1.31c0.99-4.84-1.39-4.35-5.25-5.25c1.57-8.37,4.46-16.4,7-24.5c0.02-0.06,0.49,0.36,0.87-0.87
						C396.12,122.8,396.12,122.8,421.04,122.8z"/>
					<path class="st47" d="M423.67,140.3c-3.49,18.7,3.13,5.54,3.94,5.25c0.71-0.25,1.41,0.05,1.31,0.87
						c-4.47,7.72-9.7,8.87-13.12,11.37c-7.93-1.25-47.02,1.5-49.41,0.87c-0.72-0.19-0.03-1.87-1.31-1.75c0.2-0.14,1.79-3.08,3.5-3.5
						c6.86-1.67,51.86,2.21,53.35-1.31C418.38,141.06,423.48,140.96,423.67,140.3z"/>
					<path class="st47" d="M415.8,157.8c-6.92,5.07-13.81,9.36-20.99,14c-0.32-5.06-28.64-1.87-40.23-4.37
						c3.33-3.59,6.45-7.65,10.5-10.5c1.28-0.12,0.59,1.56,1.31,1.75C368.77,159.3,407.86,156.55,415.8,157.8z"/>
					<path class="st47" d="M354.58,167.43c11.59,2.51,39.92-0.69,40.23,4.37c-9,5.82-12.44,6.65-18.37,10.5
						c-0.27-1.41,2.13-3.85,3.06-4.37c3.94-2.22,14.26-2.41-14.87-3.5c-6.11-0.23-13.74-1.01-18.8,1.75
						C349.07,171.78,351.44,170.81,354.58,167.43z"/>
				</g>
			</g>
		</g>
	</g>
</g>
</svg>
